<svg id="svg" version="1.1" xmlns="http://www.w3.org/2000/svg" xmlns:xlink="http://www.w3.org/1999/xlink" width="400" height="400" viewBox="0, 0, 400,400"><g id="svgg"><path id="path0" d="M70.903 144.800 C 57.310 147.720,50.622 163.784,58.622 174.296 C 65.019 182.702,73.264 185.288,82.003 181.630 C 83.244 181.111,84.445 180.657,84.671 180.621 C 85.050 180.561,93.227 188.188,93.829 189.162 C 93.973 189.395,93.586 190.554,92.968 191.738 C 90.601 196.269,90.586 203.638,92.934 208.149 L 94.025 210.245 89.247 215.012 L 84.469 219.780 83.062 218.989 C 77.927 216.103,70.204 216.168,65.173 219.140 L 64.065 219.795 59.342 215.083 C 53.767 209.519,54.590 209.707,50.955 213.174 L 48.021 215.974 52.934 220.897 L 57.847 225.820 57.122 227.262 C 51.416 238.619,57.915 252.040,70.506 254.898 L 74.020 255.696 77.727 254.915 C 90.030 252.324,96.845 239.831,92.200 228.382 L 91.018 225.467 95.510 220.976 L 100.002 216.484 101.600 217.332 C 111.328 222.492,124.287 217.273,128.542 206.481 C 129.528 203.981,129.868 195.829,129.030 194.779 C 128.802 194.493,128.404 193.604,128.145 192.803 C 125.105 183.374,111.088 177.426,102.376 181.868 C 100.271 182.941,100.270 182.940,95.693 178.325 L 91.460 174.057 92.368 172.491 C 94.378 169.024,94.576 162.529,92.826 157.492 C 89.690 148.464,79.988 142.847,70.903 144.800 " stroke="none" fill="#9e83f7" fill-rule="evenodd"></path><path id="path1" d="M98.545 163.736 C 97.643 163.913,96.810 164.200,96.694 164.373 C 96.577 164.547,95.940 164.925,95.278 165.213 C 94.449 165.573,94.074 165.987,94.074 166.542 C 94.074 166.984,93.973 167.610,93.849 167.933 C 93.648 168.456,94.531 168.519,102.183 168.519 C 106.890 168.519,110.741 168.430,110.741 168.321 C 110.741 167.958,108.178 165.556,107.790 165.556 C 107.580 165.556,107.092 165.240,106.706 164.854 C 105.442 163.590,101.820 163.094,98.545 163.736 M57.057 172.789 C 57.046 172.999,55.028 175.233,52.572 177.753 L 48.106 182.335 46.738 181.571 C 35.650 175.379,20.633 183.247,18.830 196.193 C 16.338 214.091,37.576 225.512,50.804 213.386 C 56.516 208.150,58.595 198.784,55.601 191.764 C 54.111 188.269,53.782 189.055,58.937 183.792 L 63.245 179.395 61.159 177.176 C 60.012 175.956,58.625 174.384,58.075 173.682 C 57.526 172.981,57.068 172.579,57.057 172.789 M108.430 219.521 C 108.891 219.610,109.558 219.606,109.912 219.514 C 110.266 219.421,109.889 219.349,109.074 219.353 C 108.259 219.357,107.970 219.433,108.430 219.521 M93.704 222.778 C 92.804 223.694,92.151 224.444,92.253 224.444 C 92.355 224.444,93.174 223.694,94.074 222.778 C 94.974 221.861,95.626 221.111,95.525 221.111 C 95.423 221.111,94.603 221.861,93.704 222.778 " stroke="none" fill="#3cabd5" fill-rule="evenodd"></path><path id="path2" d="M14.074 200.000 L 14.074 261.852 75.741 261.852 L 137.407 261.852 137.407 200.000 L 137.407 138.148 75.741 138.148 L 14.074 138.148 14.074 200.000 M79.363 144.812 C 87.951 146.976,94.074 154.555,94.074 163.021 C 94.074 164.662,94.154 164.860,94.722 164.622 C 98.522 163.026,99.138 162.890,101.861 163.044 C 109.736 163.488,115.472 171.339,113.219 178.588 C 112.640 180.450,112.803 180.741,114.424 180.741 C 120.540 180.741,128.472 189.283,129.634 197.120 C 131.274 208.179,122.036 219.630,111.474 219.630 C 110.874 219.630,110.805 219.752,111.108 220.278 C 117.200 230.847,106.768 243.274,95.880 238.418 L 93.797 237.490 93.585 239.278 C 92.891 245.144,87.874 251.548,82.037 254.021 C 70.524 258.898,57.109 251.705,55.122 239.591 C 54.875 238.084,54.643 236.803,54.606 236.744 C 54.568 236.685,53.892 237.018,53.102 237.485 C 50.640 238.940,44.594 238.741,41.777 237.112 C 36.067 233.812,33.934 226.765,36.860 220.863 L 37.979 218.606 35.563 218.421 C 25.924 217.681,17.457 207.727,18.264 198.083 C 19.075 188.388,25.623 181.060,34.743 179.641 L 37.671 179.185 37.490 175.734 C 37.026 166.869,45.872 159.929,53.547 163.136 C 55.052 163.765,55.023 163.807,55.341 160.556 C 56.378 149.951,68.425 142.055,79.363 144.812 M161.852 199.815 L 161.852 245.185 162.778 245.185 L 163.704 245.185 163.704 199.815 L 163.704 154.444 162.778 154.444 L 161.852 154.444 161.852 199.815 M342.593 174.800 C 335.303 177.094,332.032 181.405,332.044 188.704 C 332.057 196.498,334.520 199.197,344.652 202.524 C 353.244 205.346,355.185 206.880,355.185 210.850 C 355.185 219.324,343.418 222.270,336.248 215.590 C 334.219 213.699,332.127 214.174,330.657 216.860 C 329.308 219.323,329.314 219.349,331.759 221.186 C 345.374 231.416,363.609 224.376,362.787 209.209 C 362.662 206.906,361.625 203.333,361.081 203.333 C 360.894 203.333,360.741 203.124,360.741 202.869 C 360.741 202.356,359.395 201.025,357.407 199.571 C 356.143 198.646,348.946 195.556,348.057 195.556 C 345.369 195.556,340.090 191.969,339.320 189.620 C 336.995 182.522,347.221 178.468,355.148 183.346 C 358.176 185.209,359.396 184.787,361.229 181.241 C 361.880 179.982,361.037 178.148,359.806 178.148 C 359.526 178.148,359.163 177.940,359.000 177.685 C 357.549 175.416,346.697 173.508,342.593 174.800 M270.093 175.053 C 269.729 175.205,269.630 180.591,269.630 200.216 L 269.630 225.185 273.145 225.185 L 276.660 225.185 276.756 206.759 C 276.850 188.659,276.864 188.356,277.529 189.630 C 277.901 190.343,278.863 192.093,279.667 193.519 C 280.471 194.944,281.330 196.528,281.575 197.037 C 281.821 197.546,282.122 198.046,282.244 198.148 C 282.366 198.250,282.714 198.833,283.019 199.444 C 283.470 200.350,287.639 207.844,288.891 210.000 C 289.068 210.306,290.134 212.160,291.259 214.121 C 293.505 218.038,293.648 218.149,296.419 218.146 C 298.168 218.143,298.401 218.039,299.120 216.942 C 300.101 215.445,303.333 209.620,303.333 209.351 C 303.333 209.183,307.467 201.726,308.517 200.000 C 308.702 199.694,309.537 198.146,310.372 196.558 C 311.207 194.971,312.401 192.805,313.025 191.746 C 313.650 190.687,314.349 189.403,314.580 188.892 C 314.901 188.182,315.023 192.344,315.096 206.574 L 315.192 225.185 318.710 225.185 L 322.227 225.185 322.132 200.093 L 322.037 175.000 318.453 174.894 L 314.868 174.789 313.796 176.376 C 313.206 177.249,312.052 179.213,311.231 180.741 C 309.203 184.517,307.734 187.147,307.404 187.593 C 307.254 187.796,306.515 189.130,305.762 190.556 C 305.010 191.981,303.973 193.898,303.458 194.815 C 302.942 195.731,301.859 197.731,301.049 199.259 C 300.239 200.787,299.259 202.537,298.870 203.148 C 298.482 203.759,297.703 205.218,297.141 206.389 C 295.905 208.961,295.906 208.961,294.895 206.759 C 294.123 205.077,293.659 204.225,291.015 199.630 C 290.370 198.509,289.651 197.259,289.417 196.852 C 289.183 196.444,288.366 194.944,287.600 193.519 C 286.835 192.093,285.915 190.509,285.556 190.000 C 285.197 189.491,284.242 187.824,283.434 186.296 C 280.939 181.580,279.561 179.156,278.171 177.037 L 276.834 175.000 273.695 174.930 C 271.968 174.891,270.347 174.947,270.093 175.053 M216.887 175.833 C 216.609 176.731,216.773 224.388,217.055 224.844 C 217.189 225.061,218.771 225.169,220.886 225.107 L 224.489 225.000 224.456 213.981 L 224.424 202.963 237.397 202.963 L 250.370 202.963 250.370 214.074 L 250.370 225.185 254.262 225.185 L 258.153 225.185 258.058 200.278 L 257.963 175.370 254.167 175.265 L 250.370 175.159 250.370 185.891 C 250.370 192.751,250.235 196.707,249.995 196.855 C 249.788 196.983,243.996 197.083,237.124 197.078 L 224.630 197.069 224.532 186.127 L 224.433 175.185 220.760 175.185 C 217.585 175.185,217.060 175.273,216.887 175.833 M58.889 184.139 C 56.546 186.558,54.569 188.607,54.495 188.694 C 54.421 188.780,54.698 189.400,55.110 190.073 C 57.806 194.468,57.881 201.901,55.285 207.515 L 54.294 209.660 59.129 214.496 L 63.964 219.331 65.408 218.595 C 70.405 216.049,77.824 215.973,82.691 218.418 L 84.534 219.343 88.934 214.955 C 93.962 209.940,93.682 210.627,92.165 207.030 C 90.016 201.933,90.471 194.642,93.201 190.432 C 93.859 189.416,93.778 189.291,90.185 185.809 C 88.963 184.625,87.285 182.994,86.455 182.186 L 84.948 180.717 82.196 181.933 C 76.910 184.268,68.654 183.562,64.074 180.384 L 63.148 179.741 58.889 184.139 " stroke="none" fill="#163277" fill-rule="evenodd"></path><path id="path3" d="M73.232 144.341 C 73.890 144.423,75.057 144.425,75.825 144.344 C 76.594 144.264,76.056 144.197,74.630 144.196 C 73.204 144.194,72.575 144.260,73.232 144.341 M66.759 145.772 C 66.097 146.062,65.556 146.384,65.556 146.488 C 65.556 146.680,68.154 145.674,68.469 145.359 C 68.784 145.043,67.981 145.238,66.759 145.772 M63.076 147.990 L 62.037 148.943 63.241 148.106 C 63.903 147.645,64.444 147.216,64.444 147.153 C 64.444 146.860,64.035 147.111,63.076 147.990 M84.815 147.140 C 84.815 147.210,85.356 147.665,86.019 148.149 C 86.763 148.695,87.022 148.784,86.697 148.384 C 86.204 147.777,84.815 146.858,84.815 147.140 M60.707 149.907 C 59.120 151.677,58.398 152.593,58.588 152.593 C 58.690 152.593,59.476 151.759,60.334 150.741 C 61.986 148.782,62.254 148.182,60.707 149.907 M88.711 150.463 C 89.506 151.431,90.216 152.222,90.289 152.222 C 90.554 152.222,88.945 150.164,88.117 149.444 C 87.648 149.037,87.916 149.495,88.711 150.463 M92.247 155.556 C 92.245 155.657,92.571 156.657,92.972 157.778 C 93.480 159.195,93.632 159.420,93.474 158.519 C 93.283 157.435,92.261 154.967,92.247 155.556 M55.969 157.444 C 55.741 158.096,55.567 158.896,55.580 159.222 C 55.594 159.548,55.837 159.071,56.120 158.163 C 56.712 156.261,56.588 155.668,55.969 157.444 M96.540 163.870 C 94.155 164.851,93.832 165.066,94.198 165.433 C 94.448 165.682,96.301 164.875,96.693 164.346 C 97.190 163.674,101.537 163.242,103.611 163.659 C 106.012 164.141,106.658 163.942,104.572 163.362 C 102.141 162.688,98.921 162.891,96.540 163.870 M106.296 164.429 C 106.296 164.650,106.755 165.035,107.315 165.286 C 108.279 165.717,110.741 167.897,110.741 168.321 C 110.741 168.430,106.928 168.519,102.269 168.519 L 93.796 168.519 93.557 169.713 C 93.426 170.370,92.965 171.638,92.533 172.530 L 91.748 174.152 96.039 178.443 L 100.330 182.734 102.393 181.691 C 105.131 180.305,109.783 179.975,113.488 180.905 C 114.868 181.251,116.084 181.447,116.190 181.341 C 116.297 181.234,115.947 181.056,115.414 180.944 C 114.881 180.832,114.044 180.658,113.554 180.557 C 112.669 180.375,112.667 180.365,113.211 178.613 C 114.319 175.049,113.139 170.061,110.468 167.020 C 109.233 165.614,106.296 163.789,106.296 164.429 M224.621 186.451 C 224.628 195.651,224.708 197.182,225.185 197.312 C 225.590 197.423,225.617 197.376,225.284 197.140 C 224.944 196.899,224.799 194.110,224.719 186.278 L 224.612 175.741 224.621 186.451 M83.704 180.926 C 82.625 181.543,83.017 181.677,84.141 181.075 C 84.793 180.726,85.140 180.895,86.616 182.279 L 88.333 183.889 86.682 182.130 C 84.828 180.154,84.960 180.207,83.704 180.926 M68.345 182.406 C 68.962 182.677,70.129 182.998,70.938 183.119 C 71.931 183.268,71.628 183.103,70.000 182.609 C 67.222 181.765,66.759 181.709,68.345 182.406 M79.444 182.593 C 78.978 182.793,78.909 182.911,79.259 182.911 C 79.565 182.911,80.148 182.768,80.556 182.593 C 81.022 182.392,81.091 182.274,80.741 182.274 C 80.435 182.274,79.852 182.418,79.444 182.593 M118.549 182.340 C 119.138 182.792,121.481 184.015,121.481 183.871 C 121.481 183.623,119.150 182.225,118.735 182.224 C 118.548 182.223,118.465 182.275,118.549 182.340 M125.054 187.509 C 125.636 188.176,126.407 189.134,126.768 189.638 L 127.424 190.556 126.869 189.444 C 126.275 188.256,124.638 186.296,124.239 186.296 C 124.106 186.296,124.473 186.842,125.054 187.509 M127.820 191.667 C 127.827 191.870,128.153 192.704,128.545 193.519 C 128.937 194.333,129.154 194.583,129.027 194.074 C 128.766 193.025,127.801 191.100,127.820 191.667 M91.104 195.955 C 90.582 198.133,90.793 203.725,91.454 205.185 L 91.873 206.111 91.655 205.185 C 91.151 203.034,91.030 197.750,91.448 196.090 C 91.689 195.135,91.813 194.282,91.725 194.194 C 91.637 194.106,91.358 194.898,91.104 195.955 M129.741 200.000 C 129.741 201.120,129.810 201.579,129.895 201.019 C 129.980 200.458,129.980 199.542,129.895 198.981 C 129.810 198.421,129.741 198.880,129.741 200.000 M216.818 206.111 C 216.818 209.574,216.873 211.041,216.942 209.370 C 217.010 207.699,217.011 204.866,216.943 203.074 C 216.875 201.281,216.819 202.648,216.818 206.111 M224.608 213.704 C 224.608 219.713,224.659 222.171,224.721 219.167 C 224.784 216.162,224.784 211.245,224.721 208.241 C 224.659 205.236,224.608 207.694,224.608 213.704 M128.395 206.728 C 128.060 207.582,127.846 208.340,127.921 208.414 C 127.995 208.489,128.333 207.855,128.673 207.006 C 129.012 206.157,129.226 205.399,129.147 205.320 C 129.069 205.242,128.730 205.875,128.395 206.728 M93.058 209.174 L 93.501 210.384 89.023 214.862 C 84.878 219.007,84.485 219.307,83.723 218.899 C 83.270 218.657,82.831 218.527,82.747 218.611 C 82.663 218.696,83.017 218.991,83.535 219.268 C 84.453 219.759,84.591 219.658,89.090 215.169 C 93.785 210.485,94.120 209.951,93.159 208.682 C 92.668 208.032,92.658 208.080,93.058 209.174 M127.001 209.722 C 126.210 211.246,123.996 213.748,122.139 215.216 C 121.129 216.014,120.489 216.667,120.715 216.667 C 121.352 216.667,126.489 211.443,127.181 210.093 C 127.519 209.431,127.715 208.889,127.615 208.889 C 127.515 208.889,127.239 209.264,127.001 209.722 M53.914 209.959 C 53.774 210.185,53.876 210.370,54.140 210.370 C 54.403 210.370,56.741 212.487,59.334 215.075 L 64.050 219.780 65.451 218.998 C 66.221 218.568,67.577 218.024,68.463 217.788 C 69.350 217.552,69.986 217.270,69.877 217.161 C 69.624 216.908,67.270 217.668,65.410 218.603 L 63.968 219.328 59.068 214.438 C 56.114 211.491,54.067 209.712,53.914 209.959 M45.739 216.804 C 44.548 217.388,42.477 218.034,41.138 218.239 C 39.799 218.443,38.487 218.671,38.222 218.745 C 37.958 218.819,37.295 219.840,36.751 221.014 C 34.000 226.940,36.163 233.867,41.777 237.112 C 44.594 238.741,50.640 238.940,53.102 237.485 C 53.892 237.018,54.568 236.685,54.606 236.744 C 54.643 236.803,54.874 238.074,55.118 239.567 C 55.363 241.061,55.822 242.727,56.139 243.271 C 56.455 243.815,56.623 243.962,56.512 243.599 C 54.404 236.700,54.565 232.351,57.118 227.270 L 57.839 225.835 52.872 220.788 L 47.905 215.741 45.739 216.804 M95.556 221.146 C 93.213 223.584,91.260 225.624,91.215 225.679 C 91.170 225.735,91.640 227.022,92.259 228.539 C 93.965 232.717,94.023 237.468,92.433 242.778 C 92.311 243.185,92.475 242.951,92.796 242.258 C 93.118 241.565,93.475 240.209,93.589 239.244 L 93.797 237.490 95.880 238.418 C 106.768 243.274,117.200 230.847,111.108 220.278 C 110.791 219.729,110.890 219.626,111.756 219.604 C 112.318 219.589,113.111 219.423,113.519 219.234 C 114.117 218.957,114.046 218.923,113.148 219.061 C 109.146 219.674,108.580 219.661,105.547 218.889 C 103.820 218.449,101.888 217.769,101.253 217.378 C 99.794 216.480,100.469 216.034,95.556 221.146 M118.519 217.407 C 117.806 217.798,117.355 218.124,117.518 218.133 C 117.911 218.153,120.000 217.067,120.000 216.842 C 120.000 216.600,119.978 216.608,118.519 217.407 M78.333 217.246 C 79.671 217.791,82.187 218.390,82.023 218.125 C 81.799 217.762,79.361 217.027,78.519 217.068 C 78.213 217.083,78.130 217.163,78.333 217.246 M91.111 245.371 C 90.638 246.290,89.343 248.083,88.233 249.355 L 86.216 251.667 88.473 249.348 C 90.509 247.256,92.511 244.240,92.122 243.851 C 92.039 243.767,91.584 244.451,91.111 245.371 M57.195 245.402 C 58.533 248.241,63.120 252.759,65.370 253.454 C 66.080 253.673,66.082 253.664,65.413 253.230 C 61.668 250.801,59.850 248.986,57.124 244.952 C 56.867 244.571,56.899 244.773,57.195 245.402 M84.362 252.371 C 82.485 253.486,82.242 253.787,83.603 253.313 C 84.230 253.094,85.035 252.593,85.392 252.199 C 86.185 251.322,86.103 251.336,84.362 252.371 M67.964 254.623 C 68.575 254.892,69.908 255.212,70.926 255.335 C 72.495 255.523,72.353 255.446,70.000 254.831 C 66.773 253.988,66.441 253.954,67.964 254.623 M78.148 254.850 C 75.493 255.502,75.460 255.522,77.407 255.316 C 78.528 255.197,79.944 254.883,80.556 254.617 C 82.028 253.978,81.490 254.030,78.148 254.850 " stroke="none" fill="#4c40ab" fill-rule="evenodd"></path><path id="path4" d="M44.590 163.663 C 39.614 166.017,37.197 170.132,37.491 175.751 L 37.673 179.220 36.707 179.361 C 36.175 179.438,36.950 179.518,38.427 179.540 C 41.353 179.581,44.592 180.372,46.733 181.568 L 48.096 182.329 51.340 179.035 C 53.124 177.223,55.149 175.123,55.839 174.368 L 57.093 172.996 56.139 170.232 C 55.545 168.511,55.185 166.665,55.185 165.339 C 55.185 164.168,55.088 163.307,54.970 163.425 C 54.851 163.544,54.190 163.405,53.500 163.117 C 51.269 162.184,47.187 162.434,44.590 163.663 M30.556 180.720 C 29.741 181.106,29.241 181.423,29.444 181.424 C 29.950 181.427,32.872 180.059,32.407 180.037 C 32.204 180.027,31.370 180.335,30.556 180.720 M61.481 180.926 C 61.224 181.236,61.184 181.481,61.391 181.481 C 61.594 181.481,61.969 181.231,62.222 180.926 C 62.479 180.616,62.520 180.370,62.313 180.370 C 62.109 180.370,61.735 180.620,61.481 180.926 M27.008 182.571 C 24.086 184.514,19.599 190.040,19.639 191.645 C 19.645 191.861,20.181 191.056,20.832 189.857 C 22.331 187.092,24.722 184.427,27.062 182.911 C 28.701 181.849,29.139 181.481,28.767 181.481 C 28.700 181.481,27.909 181.972,27.008 182.571 M55.347 187.500 L 54.259 188.704 55.463 187.616 C 56.125 187.018,56.667 186.476,56.667 186.412 C 56.667 186.126,56.361 186.378,55.347 187.500 M55.458 191.485 C 55.779 192.302,56.109 192.904,56.191 192.822 C 56.369 192.643,55.299 190.000,55.049 190.000 C 54.953 190.000,55.137 190.668,55.458 191.485 M18.320 197.218 C 18.060 199.643,18.304 202.401,18.905 203.845 C 19.115 204.348,19.137 204.032,18.968 202.963 C 18.823 202.046,18.731 199.838,18.763 198.056 C 18.834 194.210,18.675 193.908,18.320 197.218 M57.130 199.074 C 57.135 199.889,57.210 200.179,57.299 199.718 C 57.388 199.257,57.384 198.591,57.292 198.236 C 57.199 197.882,57.126 198.259,57.130 199.074 M55.848 205.380 C 55.733 205.782,55.527 206.444,55.389 206.852 C 55.251 207.259,55.409 207.124,55.741 206.552 C 56.072 205.979,56.279 205.317,56.199 205.080 C 56.120 204.843,55.962 204.978,55.848 205.380 M19.661 206.111 C 19.661 206.315,19.980 207.065,20.370 207.778 C 20.761 208.491,21.080 208.907,21.080 208.704 C 21.080 208.500,20.761 207.750,20.370 207.037 C 19.980 206.324,19.661 205.907,19.661 206.111 M21.493 209.687 C 21.474 210.094,23.935 212.896,25.246 213.959 C 25.941 214.522,25.632 214.077,24.543 212.943 C 23.477 211.834,22.357 210.593,22.055 210.185 C 21.752 209.778,21.500 209.554,21.493 209.687 M26.853 215.187 C 27.101 215.589,29.259 216.791,29.259 216.528 C 29.259 216.441,28.666 216.019,27.941 215.592 C 27.216 215.164,26.726 214.982,26.853 215.187 M30.596 217.206 C 31.230 217.498,32.230 217.833,32.819 217.949 C 33.735 218.129,33.702 218.086,32.593 217.651 C 30.592 216.867,29.179 216.552,30.596 217.206 M34.537 218.403 C 34.894 218.497,35.477 218.497,35.833 218.403 C 36.190 218.310,35.898 218.234,35.185 218.234 C 34.472 218.234,34.181 218.310,34.537 218.403 " stroke="none" fill="#2774a3" fill-rule="evenodd"></path></g></svg>