<svg version="1.1" id="Layer_1" xmlns="http://www.w3.org/2000/svg" xmlns:xlink="http://www.w3.org/1999/xlink" x="0px" y="0px"
	 width="100%" viewBox="0 0 791 306" enable-background="new 0 0 791 306" xml:space="preserve">
<path fill="#FEFEFE" opacity="1.000000" stroke="none" 
	d="
M485.000000,307.000000 
	C323.370056,307.000000 162.240097,307.000000 1.055073,307.000000 
	C1.055073,205.059982 1.055073,103.119919 1.055073,1.000000 
	C132.743286,1.000000 264.486664,1.000000 396.230042,1.000000 
	C528.033325,1.000000 659.836670,1.000000 791.819946,1.000000 
	C791.819946,102.999748 791.819946,204.999847 791.819946,307.000000 
	C689.786560,307.000000 587.643311,307.000000 485.000000,307.000000 
M616.510315,139.967606 
	C610.546082,150.898560 604.581848,161.829529 598.777100,172.468185 
	C582.641296,143.716339 566.471130,114.832497 550.176514,86.019066 
	C549.021851,83.977303 547.117126,81.170006 545.275085,80.931931 
	C539.955872,80.244446 534.490356,80.688927 529.098145,80.688927 
	C529.098145,125.338837 529.098145,169.418442 529.098145,213.772308 
	C534.551147,213.772308 539.646912,213.772308 545.151001,213.772308 
	C545.151001,179.615555 545.151001,145.598297 545.151001,111.581024 
	C547.438171,113.621552 548.830872,115.976204 550.165710,118.363228 
	C563.171326,141.620148 576.204651,164.861725 589.130005,188.163177 
	C591.354248,192.172928 593.698914,195.229996 598.979370,195.174545 
	C604.091248,195.120819 606.239563,192.025620 608.317566,188.207306 
	C619.940735,166.850327 631.628540,145.528442 643.319702,124.208557 
	C645.567017,120.110321 647.928284,116.074524 650.237000,112.009918 
	C650.647583,112.136581 651.058167,112.263245 651.468750,112.389900 
	C651.468750,146.100983 651.468750,179.812057 651.468750,213.541962 
	C657.302124,213.541962 662.524231,213.541962 667.757568,213.541962 
	C667.757568,169.036118 667.757568,124.949638 667.757568,80.288498 
	C663.326172,80.288498 659.189087,80.491852 655.081238,80.232262 
	C650.832825,79.963783 648.412354,81.792290 646.429138,85.465042 
	C636.699585,103.484261 626.752319,121.385887 616.510315,139.967606 
M386.875732,168.500000 
	C386.875732,183.584717 386.875732,198.669418 386.875732,213.907928 
	C393.466553,213.907928 399.245453,213.907928 405.572327,213.907928 
	C405.572327,193.961212 405.572327,174.223969 405.572327,154.178421 
	C429.509033,154.178421 452.896667,154.178421 476.909576,154.178421 
	C476.909576,174.184341 476.909576,193.907410 476.909576,213.689606 
	C483.415863,213.689606 489.290619,213.689606 495.230652,213.689606 
	C495.230652,169.220413 495.230652,125.143021 495.230652,80.825897 
	C488.961060,80.825897 483.077911,80.825897 476.739349,80.825897 
	C476.739349,83.001091 476.738129,84.807907 476.739502,86.614731 
	C476.751465,102.279129 476.573944,117.947342 476.888275,133.605682 
	C476.986664,138.507065 475.910858,140.177475 470.633484,140.087982 
	C450.975494,139.754623 431.308136,139.973190 411.644318,139.984360 
	C409.856659,139.985382 408.069000,139.984497 405.680328,139.984497 
	C405.680328,120.036194 405.680328,100.632942 405.680328,80.887360 
	C399.169586,80.887360 393.263184,80.887360 387.473389,80.887360 
	C387.205017,81.427567 386.931030,81.721748 386.930695,82.016235 
	C386.898285,110.510811 386.886658,139.005402 386.875732,168.500000 
M696.127991,111.904480 
	C697.232483,118.551483 697.301086,125.598511 699.678162,131.754074 
	C703.479614,141.598053 712.480347,146.203781 721.967651,149.621246 
	C730.886963,152.834091 740.195312,155.259430 748.638916,159.434067 
	C762.604065,166.338562 763.478149,185.179184 750.851196,194.443649 
	C740.527344,202.018326 723.642761,201.522018 711.320312,193.243073 
	C708.693542,191.478271 706.150940,189.588272 703.566040,187.761002 
	C700.538757,185.620972 697.906494,186.234818 695.746582,189.049561 
	C694.636047,190.496826 693.908997,192.249527 692.740967,193.639236 
	C690.087280,196.796555 690.949463,199.037079 693.922302,201.495071 
	C710.676331,215.347733 729.554382,218.956116 750.134888,212.724945 
	C761.165161,209.385315 769.194824,202.000427 773.879272,191.299774 
	C783.077332,170.288910 775.805725,150.549423 755.755859,142.364288 
	C749.746765,139.911179 743.506592,138.025421 737.489929,135.589203 
	C731.959900,133.350021 726.213135,131.307526 721.232178,128.128159 
	C713.205688,123.004837 711.528320,114.338219 715.785828,105.744087 
	C718.431580,100.403389 722.892761,97.379051 728.351257,95.874977 
	C740.244019,92.597977 750.996948,95.376381 760.948181,102.379356 
	C765.854370,105.831985 768.060669,105.155510 770.870422,99.980217 
	C771.585144,98.663780 772.065247,97.196007 772.916565,95.982582 
	C774.825806,93.261269 773.739929,91.621681 771.422058,89.801949 
	C763.882202,83.882454 755.396667,80.315445 745.926147,79.170662 
	C719.159729,75.935127 699.694092,88.725754 696.127991,111.904480 
M19.957632,80.509201 
	C19.957632,87.508163 20.550301,94.570198 19.813929,101.490807 
	C18.797115,111.047081 21.103069,118.710358 29.248278,124.249077 
	C32.619041,126.541191 33.236988,129.829041 33.220669,133.795319 
	C33.078743,168.289536 33.127819,202.784592 33.162338,237.279343 
	C33.164825,239.764435 33.231201,242.305466 33.737968,244.721893 
	C34.666733,249.150452 38.725349,252.106079 43.221207,252.017471 
	C47.633282,251.930511 51.651005,248.694794 52.421547,244.294479 
	C52.820484,242.016281 52.839554,239.652115 52.841129,237.326660 
	C52.864742,202.498596 52.799160,167.670227 52.976826,132.843048 
	C52.989624,130.333862 53.982044,126.841545 55.781837,125.497864 
	C64.311775,119.129654 67.223587,110.900642 65.677124,100.685165 
	C65.504494,99.544807 65.654861,98.355713 65.653618,97.189224 
	C65.643654,87.857544 65.884460,78.516731 65.545654,69.196999 
	C65.260780,61.360748 58.914272,58.164776 51.522636,60.071457 
	C46.267647,61.426987 40.413837,60.463058 34.827141,60.519234 
	C34.690067,60.520615 34.562241,60.318207 34.411602,60.254795 
	C27.418999,57.311306 20.361008,61.799732 19.992546,69.517464 
	C19.833790,72.842819 19.960562,76.181801 19.957632,80.509201 
M193.952347,208.500000 
	C193.951874,218.821762 193.923828,229.143631 193.957764,239.465286 
	C194.002121,252.958282 192.199829,252.114380 206.510437,252.069534 
	C213.024918,252.049118 213.438004,251.657974 213.438889,245.372986 
	C213.447159,185.772736 213.451202,126.172493 213.431824,66.572258 
	C213.431290,64.923470 213.436722,63.184448 212.943512,61.646511 
	C212.141327,59.145073 210.407669,58.289955 207.909393,59.761005 
	C190.832977,69.816017 181.269012,84.366661 181.175400,104.537628 
	C181.118225,116.856956 181.759155,129.214767 180.972290,141.483841 
	C180.388138,150.592270 182.494629,157.720886 190.054443,163.002899 
	C193.379562,165.326126 194.124054,168.559479 194.039932,172.540802 
	C193.793823,184.189285 193.952347,195.846313 193.952347,208.500000 
M174.620422,150.824875 
	C172.127228,129.599564 161.755295,113.735535 142.557922,103.971832 
	C120.526268,92.766647 93.576866,97.076744 76.145622,114.498085 
	C58.413090,132.220520 53.877640,159.278595 64.938988,181.355743 
	C77.082008,205.591751 105.420158,218.724670 130.761993,211.860504 
	C158.736786,204.283142 176.397507,180.089905 174.620422,150.824875 
M290.493469,216.500122 
	C290.494446,155.195450 290.495728,93.890770 290.494690,32.586090 
	C290.494659,31.087030 290.698853,29.537668 290.385406,28.104107 
	C290.112640,26.856565 289.241577,25.739838 288.634857,24.565306 
	C288.008759,25.688507 287.288177,26.772408 286.797516,27.951921 
	C286.561371,28.519611 286.759552,29.267626 286.759552,29.933981 
	C286.761108,107.730972 286.762390,185.527954 286.764679,263.324951 
	C286.764709,264.491028 286.438232,265.810333 286.877197,266.780823 
	C287.332916,267.788422 288.534943,268.458466 289.410583,269.276093 
	C289.771301,268.982910 290.132050,268.689728 290.492767,268.396545 
	C290.492767,251.431091 290.492767,234.465622 290.493469,216.500122 
z"/>
<path fill="#5A5C65" opacity="1.000000" stroke="none" 
	d="
M616.696167,139.648315 
	C626.752319,121.385887 636.699585,103.484261 646.429138,85.465042 
	C648.412354,81.792290 650.832825,79.963783 655.081238,80.232262 
	C659.189087,80.491852 663.326172,80.288498 667.757568,80.288498 
	C667.757568,124.949638 667.757568,169.036118 667.757568,213.541962 
	C662.524231,213.541962 657.302124,213.541962 651.468750,213.541962 
	C651.468750,179.812057 651.468750,146.100983 651.468750,112.389900 
	C651.058167,112.263245 650.647583,112.136581 650.237000,112.009918 
	C647.928284,116.074524 645.567017,120.110321 643.319702,124.208557 
	C631.628540,145.528442 619.940735,166.850327 608.317566,188.207306 
	C606.239563,192.025620 604.091248,195.120819 598.979370,195.174545 
	C593.698914,195.229996 591.354248,192.172928 589.130005,188.163177 
	C576.204651,164.861725 563.171326,141.620148 550.165710,118.363228 
	C548.830872,115.976204 547.438171,113.621552 545.151001,111.581024 
	C545.151001,145.598297 545.151001,179.615555 545.151001,213.772308 
	C539.646912,213.772308 534.551147,213.772308 529.098145,213.772308 
	C529.098145,169.418442 529.098145,125.338837 529.098145,80.688927 
	C534.490356,80.688927 539.955872,80.244446 545.275085,80.931931 
	C547.117126,81.170006 549.021851,83.977303 550.176514,86.019066 
	C566.471130,114.832497 582.641296,143.716339 598.777100,172.468185 
	C604.581848,161.829529 610.546082,150.898560 616.696167,139.648315 
z"/>
<path fill="#595C65" opacity="1.000000" stroke="none" 
	d="
M386.874695,168.000000 
	C386.886658,139.005402 386.898285,110.510811 386.930695,82.016235 
	C386.931030,81.721748 387.205017,81.427567 387.473389,80.887360 
	C393.263184,80.887360 399.169586,80.887360 405.680328,80.887360 
	C405.680328,100.632942 405.680328,120.036194 405.680328,139.984497 
	C408.069000,139.984497 409.856659,139.985382 411.644318,139.984360 
	C431.308136,139.973190 450.975494,139.754623 470.633484,140.087982 
	C475.910858,140.177475 476.986664,138.507065 476.888275,133.605682 
	C476.573944,117.947342 476.751465,102.279129 476.739502,86.614731 
	C476.738129,84.807907 476.739349,83.001091 476.739349,80.825897 
	C483.077911,80.825897 488.961060,80.825897 495.230652,80.825897 
	C495.230652,125.143021 495.230652,169.220413 495.230652,213.689606 
	C489.290619,213.689606 483.415863,213.689606 476.909576,213.689606 
	C476.909576,193.907410 476.909576,174.184341 476.909576,154.178421 
	C452.896667,154.178421 429.509033,154.178421 405.572327,154.178421 
	C405.572327,174.223969 405.572327,193.961212 405.572327,213.907928 
	C399.245453,213.907928 393.466553,213.907928 386.875732,213.907928 
	C386.875732,198.669418 386.875732,183.584717 386.874695,168.000000 
z"/>
<path fill="#5B5D65" opacity="1.000000" stroke="none" 
	d="
M696.162231,111.460068 
	C699.694092,88.725754 719.159729,75.935127 745.926147,79.170662 
	C755.396667,80.315445 763.882202,83.882454 771.422058,89.801949 
	C773.739929,91.621681 774.825806,93.261269 772.916565,95.982582 
	C772.065247,97.196007 771.585144,98.663780 770.870422,99.980217 
	C768.060669,105.155510 765.854370,105.831985 760.948181,102.379356 
	C750.996948,95.376381 740.244019,92.597977 728.351257,95.874977 
	C722.892761,97.379051 718.431580,100.403389 715.785828,105.744087 
	C711.528320,114.338219 713.205688,123.004837 721.232178,128.128159 
	C726.213135,131.307526 731.959900,133.350021 737.489929,135.589203 
	C743.506592,138.025421 749.746765,139.911179 755.755859,142.364288 
	C775.805725,150.549423 783.077332,170.288910 773.879272,191.299774 
	C769.194824,202.000427 761.165161,209.385315 750.134888,212.724945 
	C729.554382,218.956116 710.676331,215.347733 693.922302,201.495071 
	C690.949463,199.037079 690.087280,196.796555 692.740967,193.639236 
	C693.908997,192.249527 694.636047,190.496826 695.746582,189.049561 
	C697.906494,186.234818 700.538757,185.620972 703.566040,187.761002 
	C706.150940,189.588272 708.693542,191.478271 711.320312,193.243073 
	C723.642761,201.522018 740.527344,202.018326 750.851196,194.443649 
	C763.478149,185.179184 762.604065,166.338562 748.638916,159.434067 
	C740.195312,155.259430 730.886963,152.834091 721.967651,149.621246 
	C712.480347,146.203781 703.479614,141.598053 699.678162,131.754074 
	C697.301086,125.598511 697.232483,118.551483 696.162231,111.460068 
z"/>
<path fill="#6B6C71" opacity="1.000000" stroke="none" 
	d="
M19.957626,80.011902 
	C19.960562,76.181801 19.833790,72.842819 19.992546,69.517464 
	C20.361008,61.799732 27.418999,57.311306 34.411602,60.254795 
	C34.562241,60.318207 34.690067,60.520615 34.827141,60.519234 
	C40.413837,60.463058 46.267647,61.426987 51.522636,60.071457 
	C58.914272,58.164776 65.260780,61.360748 65.545654,69.196999 
	C65.884460,78.516731 65.643654,87.857544 65.653618,97.189224 
	C65.654861,98.355713 65.504494,99.544807 65.677124,100.685165 
	C67.223587,110.900642 64.311775,119.129654 55.781837,125.497864 
	C53.982044,126.841545 52.989624,130.333862 52.976826,132.843048 
	C52.799160,167.670227 52.864742,202.498596 52.841129,237.326660 
	C52.839554,239.652115 52.820484,242.016281 52.421547,244.294479 
	C51.651005,248.694794 47.633282,251.930511 43.221207,252.017471 
	C38.725349,252.106079 34.666733,249.150452 33.737968,244.721893 
	C33.231201,242.305466 33.164825,239.764435 33.162338,237.279343 
	C33.127819,202.784592 33.078743,168.289536 33.220669,133.795319 
	C33.236988,129.829041 32.619041,126.541191 29.248278,124.249077 
	C21.103069,118.710358 18.797115,111.047081 19.813929,101.490807 
	C20.550301,94.570198 19.957632,87.508163 19.957626,80.011902 
M39.818348,211.500000 
	C39.824123,221.326889 39.701862,231.157349 39.975304,240.976776 
	C40.015789,242.430374 41.925732,243.831924 42.970772,245.257568 
	C44.031952,243.847504 45.371853,242.559357 46.060051,240.986145 
	C46.549976,239.866165 46.166199,238.362427 46.166229,237.029953 
	C46.166969,204.050888 46.511967,171.065842 45.942429,138.096619 
	C45.785400,129.006790 47.695660,122.084396 54.967159,116.489372 
	C56.923012,114.984451 58.714561,111.928299 58.783714,109.532341 
	C59.153557,96.717918 59.080120,83.884308 58.801086,71.065147 
	C58.763763,69.350594 56.690960,67.680344 55.560753,65.989578 
	C54.650936,67.669243 52.992420,69.331703 52.953377,71.031372 
	C52.708641,81.685715 52.812675,92.348373 52.830994,103.008232 
	C52.835098,105.398834 53.172825,107.686905 49.481998,107.679520 
	C45.768684,107.672089 46.158348,105.338318 46.161469,102.973473 
	C46.175091,92.646713 46.328114,82.315315 46.030991,71.997108 
	C45.972843,69.977898 44.212616,66.364273 43.114815,66.316727 
	C39.339886,66.153214 39.851818,69.627403 39.839970,72.201675 
	C39.792442,82.528229 39.782154,92.855392 39.848808,103.181740 
	C39.865364,105.746719 39.843327,107.751083 36.304153,107.665039 
	C32.945789,107.583389 33.158569,105.536629 33.162991,103.289185 
	C33.183624,92.795891 33.180717,82.302505 33.159718,71.809204 
	C33.154781,69.342033 33.553143,66.052803 30.020998,66.354607 
	C28.871586,66.452827 27.227468,70.011429 27.166376,72.028427 
	C26.869009,81.846527 27.624172,91.725555 26.849590,101.491234 
	C26.193590,109.761887 28.424358,116.034134 35.101547,120.804161 
	C38.982803,123.576828 39.967514,127.301277 39.926468,132.050720 
	C39.700493,158.198837 39.818298,184.349930 39.818348,211.500000 
z"/>
<path fill="#67676C" opacity="1.000000" stroke="none" 
	d="
M193.952332,208.000000 
	C193.952347,195.846313 193.793823,184.189285 194.039932,172.540802 
	C194.124054,168.559479 193.379562,165.326126 190.054443,163.002899 
	C182.494629,157.720886 180.388138,150.592270 180.972290,141.483841 
	C181.759155,129.214767 181.118225,116.856956 181.175400,104.537628 
	C181.269012,84.366661 190.832977,69.816017 207.909393,59.761005 
	C210.407669,58.289955 212.141327,59.145073 212.943512,61.646511 
	C213.436722,63.184448 213.431290,64.923470 213.431824,66.572258 
	C213.451202,126.172493 213.447159,185.772736 213.438889,245.372986 
	C213.438004,251.657974 213.024918,252.049118 206.510437,252.069534 
	C192.199829,252.114380 194.002121,252.958282 193.957764,239.465286 
	C193.923828,229.143631 193.951874,218.821762 193.952332,208.000000 
M200.597565,179.513931 
	C200.597565,201.274567 200.597565,223.035202 200.597565,244.716675 
	C204.992599,246.110794 206.867874,245.448013 206.857895,240.733200 
	C206.739075,184.625946 206.779648,128.518372 206.752213,72.410881 
	C206.751709,71.383354 206.430099,70.355988 206.147888,68.668083 
	C194.591125,76.983383 188.517532,87.764542 187.930252,101.065971 
	C187.262756,116.183876 187.719421,131.348755 187.466248,146.489517 
	C187.404633,150.174240 188.457977,153.018555 191.387344,155.084671 
	C199.243103,160.625443 202.132446,168.151855 200.602722,177.523300 
	C200.549805,177.847580 200.596756,178.188171 200.597565,179.513931 
z"/>
<path fill="#68686D" opacity="1.000000" stroke="none" 
	d="
M174.628967,151.290375 
	C176.397507,180.089905 158.736786,204.283142 130.761993,211.860504 
	C105.420158,218.724670 77.082008,205.591751 64.938988,181.355743 
	C53.877640,159.278595 58.413090,132.220520 76.145622,114.498085 
	C93.576866,97.076744 120.526268,92.766647 142.557922,103.971832 
	C161.755295,113.735535 172.127228,129.599564 174.628967,151.290375 
M160.047882,183.416931 
	C173.106918,161.893463 170.031998,134.915573 152.687180,118.837914 
	C134.341888,101.832870 107.811333,99.530968 87.916138,113.218102 
	C71.151070,124.751816 62.381512,146.222336 66.521927,165.597610 
	C70.944344,186.292511 86.572990,201.985199 106.676346,205.916473 
	C127.418777,209.972748 147.998917,201.456635 160.047882,183.416931 
z"/>
<path fill="#727376" opacity="1.000000" stroke="none" 
	d="
M290.493103,217.000137 
	C290.492767,234.465622 290.492767,251.431091 290.492767,268.396545 
	C290.132050,268.689728 289.771301,268.982910 289.410583,269.276093 
	C288.534943,268.458466 287.332916,267.788422 286.877197,266.780823 
	C286.438232,265.810333 286.764709,264.491028 286.764679,263.324951 
	C286.762390,185.527954 286.761108,107.730972 286.759552,29.933981 
	C286.759552,29.267626 286.561371,28.519611 286.797516,27.951921 
	C287.288177,26.772408 288.008759,25.688507 288.634857,24.565304 
	C289.241577,25.739838 290.112640,26.856565 290.385406,28.104107 
	C290.698853,29.537668 290.494659,31.087030 290.494690,32.586090 
	C290.495728,93.890770 290.494446,155.195450 290.493103,217.000137 
z"/>
<path fill="#F7F7F7" opacity="1.000000" stroke="none" 
	d="
M39.818256,211.000000 
	C39.818298,184.349930 39.700493,158.198837 39.926468,132.050720 
	C39.967514,127.301277 38.982803,123.576828 35.101547,120.804161 
	C28.424358,116.034134 26.193590,109.761887 26.849590,101.491234 
	C27.624172,91.725555 26.869009,81.846527 27.166376,72.028427 
	C27.227468,70.011429 28.871586,66.452827 30.020998,66.354607 
	C33.553143,66.052803 33.154781,69.342033 33.159718,71.809204 
	C33.180717,82.302505 33.183624,92.795891 33.162991,103.289185 
	C33.158569,105.536629 32.945789,107.583389 36.304153,107.665039 
	C39.843327,107.751083 39.865364,105.746719 39.848808,103.181740 
	C39.782154,92.855392 39.792442,82.528229 39.839970,72.201675 
	C39.851818,69.627403 39.339886,66.153214 43.114815,66.316727 
	C44.212616,66.364273 45.972843,69.977898 46.030991,71.997108 
	C46.328114,82.315315 46.175091,92.646713 46.161469,102.973473 
	C46.158348,105.338318 45.768684,107.672089 49.481998,107.679520 
	C53.172825,107.686905 52.835098,105.398834 52.830994,103.008232 
	C52.812675,92.348373 52.708641,81.685715 52.953377,71.031372 
	C52.992420,69.331703 54.650936,67.669243 55.560753,65.989578 
	C56.690960,67.680344 58.763763,69.350594 58.801086,71.065147 
	C59.080120,83.884308 59.153557,96.717918 58.783714,109.532341 
	C58.714561,111.928299 56.923012,114.984451 54.967159,116.489372 
	C47.695660,122.084396 45.785400,129.006790 45.942429,138.096619 
	C46.511967,171.065842 46.166969,204.050888 46.166229,237.029953 
	C46.166199,238.362427 46.549976,239.866165 46.060051,240.986145 
	C45.371853,242.559357 44.031952,243.847504 42.970764,245.257568 
	C41.925732,243.831924 40.015789,242.430374 39.975304,240.976776 
	C39.701862,231.157349 39.824123,221.326889 39.818256,211.000000 
z"/>
<path fill="#F7F7F7" opacity="1.000000" stroke="none" 
	d="
M200.597351,179.017548 
	C200.596756,178.188171 200.549805,177.847580 200.602722,177.523300 
	C202.132446,168.151855 199.243103,160.625443 191.387344,155.084671 
	C188.457977,153.018555 187.404633,150.174240 187.466248,146.489517 
	C187.719421,131.348755 187.262756,116.183876 187.930252,101.065971 
	C188.517532,87.764542 194.591125,76.983383 206.147888,68.668083 
	C206.430099,70.355988 206.751709,71.383354 206.752213,72.410881 
	C206.779648,128.518372 206.739075,184.625946 206.857895,240.733200 
	C206.867874,245.448013 204.992599,246.110794 200.597565,244.716675 
	C200.597565,223.035202 200.597565,201.274567 200.597351,179.017548 
z"/>
<path fill="#FBFBFB" opacity="1.000000" stroke="none" 
	d="
M159.834702,183.712311 
	C147.998917,201.456635 127.418777,209.972748 106.676346,205.916473 
	C86.572990,201.985199 70.944344,186.292511 66.521927,165.597610 
	C62.381512,146.222336 71.151070,124.751816 87.916138,113.218102 
	C107.811333,99.530968 134.341888,101.832870 152.687180,118.837914 
	C170.031998,134.915573 173.106918,161.893463 159.834702,183.712311 
M103.724541,136.359421 
	C92.523796,137.383224 87.265129,150.601273 94.184586,158.916901 
	C100.233795,166.186691 107.019325,172.869553 113.812958,179.468475 
	C114.927383,180.550995 118.665138,180.798111 119.656425,179.841553 
	C126.471550,173.265366 133.092484,166.454407 139.348328,159.342850 
	C144.238998,153.783203 143.576279,145.107925 138.533279,140.248474 
	C133.206543,135.115616 126.322937,134.981598 119.996529,139.906342 
	C118.974388,140.702026 118.005791,141.566513 117.989075,141.580521 
	C112.929825,139.614914 108.720566,137.979523 103.724541,136.359421 
M141.362839,118.333534 
	C140.022018,119.768509 138.681213,121.203484 137.991440,121.941696 
	C142.432220,127.368828 146.528427,131.887970 150.044159,136.820816 
	C153.020767,140.997238 153.724014,141.334061 158.147644,137.564362 
	C154.695068,129.639496 149.085907,123.502296 141.362839,118.333534 
M127.809654,111.946487 
	C121.711182,110.108681 123.547745,114.517212 123.161209,117.555351 
	C126.053558,118.385841 128.674042,119.138275 131.775345,120.028763 
	C132.563965,117.999649 133.288269,116.135986 134.131927,113.965202 
	C131.932068,113.211884 130.257248,112.638367 127.809654,111.946487 
M132.973328,189.033463 
	C131.102753,188.628647 129.232162,188.223831 127.361572,187.819031 
	C126.951355,189.729187 126.541130,191.639359 126.080498,193.784241 
	C130.175781,194.367538 133.688705,195.441422 132.973328,189.033463 
M101.749931,188.105362 
	C101.423431,190.005371 101.096931,191.905380 100.692513,194.258774 
	C103.458557,194.114532 105.190277,194.024216 106.840485,193.938156 
	C107.725113,189.861572 107.563171,187.049393 101.749931,188.105362 
M119.248123,193.951843 
	C119.547928,192.042984 119.847733,190.134109 120.153381,188.188034 
	C113.424706,187.630127 113.424706,187.630127 114.134529,193.914642 
	C115.484276,193.991837 116.909851,194.073380 119.248123,193.951843 
z"/>
<path fill="#68686D" opacity="1.000000" stroke="none" 
	d="
M104.117920,136.351776 
	C108.720566,137.979523 112.929825,139.614914 117.989075,141.580521 
	C118.005791,141.566513 118.974388,140.702026 119.996529,139.906342 
	C126.322937,134.981598 133.206543,135.115616 138.533279,140.248474 
	C143.576279,145.107925 144.238998,153.783203 139.348328,159.342850 
	C133.092484,166.454407 126.471550,173.265366 119.656425,179.841553 
	C118.665138,180.798111 114.927383,180.550995 113.812958,179.468475 
	C107.019325,172.869553 100.233795,166.186691 94.184586,158.916901 
	C87.265129,150.601273 92.523796,137.383224 104.117920,136.351776 
M110.992218,167.508026 
	C112.514908,169.862656 114.037598,172.217270 115.560280,174.571899 
	C115.593086,173.427200 115.625885,172.282501 115.658684,171.137802 
	C121.868492,165.857544 128.305908,160.815857 134.194382,155.198730 
	C137.248062,152.285782 136.627487,147.589539 133.596298,144.884277 
	C130.245636,141.893906 126.896683,142.642776 123.777702,145.402969 
	C122.658493,146.393433 121.581863,147.447113 120.592644,148.566376 
	C118.048897,151.444550 115.575089,151.425797 113.035126,148.574951 
	C112.151176,147.582825 111.197632,146.648972 110.235085,145.731262 
	C106.750427,142.408966 102.978867,142.116364 100.118553,144.921844 
	C97.120605,147.862320 96.993446,152.282043 99.997551,155.658096 
	C103.420815,159.505219 106.986595,163.225525 110.992218,167.508026 
z"/>
<path fill="#6B6A6F" opacity="1.000000" stroke="none" 
	d="
M141.688782,118.456787 
	C149.085907,123.502296 154.695068,129.639496 158.147644,137.564362 
	C153.724014,141.334061 153.020767,140.997238 150.044159,136.820816 
	C146.528427,131.887970 142.432220,127.368828 137.991440,121.941696 
	C138.681213,121.203484 140.022018,119.768509 141.688782,118.456787 
z"/>
<path fill="#717075" opacity="1.000000" stroke="none" 
	d="
M128.196045,112.005661 
	C130.257248,112.638367 131.932068,113.211884 134.131927,113.965202 
	C133.288269,116.135986 132.563965,117.999649 131.775345,120.028763 
	C128.674042,119.138275 126.053558,118.385841 123.161209,117.555351 
	C123.547745,114.517212 121.711182,110.108681 128.196045,112.005661 
z"/>
<path fill="#727376" opacity="1.000000" stroke="none" 
	d="
M133.007111,189.449677 
	C133.688705,195.441422 130.175781,194.367538 126.080498,193.784241 
	C126.541130,191.639359 126.951355,189.729187 127.361572,187.819031 
	C129.232162,188.223831 131.102753,188.628647 133.007111,189.449677 
z"/>
<path fill="#68686D" opacity="1.000000" stroke="none" 
	d="
M102.198044,187.985077 
	C107.563171,187.049393 107.725113,189.861572 106.840485,193.938156 
	C105.190277,194.024216 103.458557,194.114532 100.692513,194.258774 
	C101.096931,191.905380 101.423431,190.005371 102.198044,187.985077 
z"/>
<path fill="#68686D" opacity="1.000000" stroke="none" 
	d="
M118.791779,194.053375 
	C116.909851,194.073380 115.484276,193.991837 114.134529,193.914642 
	C113.424706,187.630127 113.424706,187.630127 120.153381,188.188034 
	C119.847733,190.134109 119.547928,192.042984 118.791779,194.053375 
z"/>
<path fill="#F8F8F9" opacity="1.000000" stroke="none" 
	d="
M110.741325,167.254486 
	C106.986595,163.225525 103.420815,159.505219 99.997551,155.658096 
	C96.993446,152.282043 97.120605,147.862320 100.118553,144.921844 
	C102.978867,142.116364 106.750427,142.408966 110.235085,145.731262 
	C111.197632,146.648972 112.151176,147.582825 113.035126,148.574951 
	C115.575089,151.425797 118.048897,151.444550 120.592644,148.566376 
	C121.581863,147.447113 122.658493,146.393433 123.777702,145.402969 
	C126.896683,142.642776 130.245636,141.893906 133.596298,144.884277 
	C136.627487,147.589539 137.248062,152.285782 134.194382,155.198730 
	C128.305908,160.815857 121.868492,165.857544 115.658684,171.137802 
	C115.625885,172.282501 115.593086,173.427200 115.560280,174.571899 
	C114.037598,172.217270 112.514908,169.862656 110.741325,167.254486 
z"/>
</svg>