<svg version="1.1" id="Layer_1" xmlns="http://www.w3.org/2000/svg" xmlns:xlink="http://www.w3.org/1999/xlink" x="0px" y="0px"
	 width="100%" viewBox="0 0 1017 447" enable-background="new 0 0 1017 447" xml:space="preserve">
<path fill="#FFFFFF" opacity="1.000000" stroke="none" 
	d="
M784.000000,448.000000 
	C522.666687,448.000000 261.833344,448.000000 1.000000,448.000000 
	C1.000000,299.000000 1.000000,150.000000 1.000000,1.000000 
	C340.000000,1.000000 679.000000,1.000000 1018.000000,1.000000 
	C1018.000000,150.000000 1018.000000,299.000000 1018.000000,448.000000 
	C940.166687,448.000000 862.333313,448.000000 784.000000,448.000000 
M866.592957,245.500183 
	C866.592957,214.384125 866.592957,183.268066 866.592957,151.637100 
	C861.462830,151.637100 857.002808,151.782608 852.557434,151.590286 
	C849.108459,151.441071 846.917786,152.888214 845.324036,155.818298 
	C829.803162,184.353302 814.249451,212.870422 798.683167,241.380707 
	C798.270020,242.137360 797.609985,242.759247 796.952881,243.585129 
	C796.395935,242.826202 796.063416,242.461258 795.829224,242.041458 
	C779.923706,213.527084 764.058838,184.989868 748.052368,156.532333 
	C747.011841,154.682419 745.014526,152.327011 743.245422,152.127274 
	C738.034729,151.538940 732.714844,151.917343 727.237488,151.917343 
	C727.237488,196.663208 727.237488,240.894211 727.237488,285.362976 
	C732.786804,285.362976 738.005127,285.362976 743.766785,285.362976 
	C743.766785,251.207138 743.766785,217.385803 743.766785,183.564453 
	C745.548950,184.871277 746.530090,186.341080 747.390381,187.878525 
	C760.976990,212.159149 774.591553,236.424438 788.078613,260.760345 
	C790.242249,264.664398 793.062439,266.727386 797.609680,266.675476 
	C802.397949,266.620850 804.629639,263.558411 806.623779,259.899658 
	C819.460632,236.347748 832.325684,212.811172 845.206970,189.283524 
	C846.107361,187.639023 847.212891,186.106857 848.223022,184.522446 
	C848.674133,184.649612 849.125305,184.776779 849.576416,184.903931 
	C849.576416,218.235641 849.576416,251.567337 849.576416,285.562592 
	C854.333069,285.562592 858.297180,285.350555 862.227417,285.624695 
	C865.857239,285.877869 866.752930,284.389984 866.699829,280.997223 
	C866.519714,269.500519 866.608154,257.999573 866.592957,245.500183 
M298.500000,384.917633 
	C321.915039,384.917633 345.330048,384.917633 368.650482,384.917633 
	C368.650482,273.113129 368.650482,162.235138 368.650482,51.486012 
	C257.563660,51.486012 146.994461,51.486012 36.349575,51.486012 
	C36.349575,162.688126 36.349575,273.448425 36.349575,384.917511 
	C123.608086,384.917511 210.554047,384.917511 298.500000,384.917633 
M622.500427,211.191879 
	C616.399597,211.191879 610.298706,211.191879 603.653931,211.191879 
	C603.653931,191.153290 603.653931,171.750488 603.653931,152.184860 
	C597.188232,152.184860 591.284668,152.184860 585.288330,152.184860 
	C585.288330,196.834259 585.288330,241.178757 585.288330,285.456482 
	C591.621643,285.456482 597.524841,285.456482 603.991577,285.456482 
	C603.991577,265.223358 603.991577,245.344574 603.991577,225.595764 
	C627.934631,225.595764 651.298584,225.595764 675.133545,225.595764 
	C675.133545,245.812592 675.133545,265.565338 675.133545,285.427917 
	C681.519897,285.427917 687.422180,285.427917 693.907898,285.427917 
	C693.907898,283.339905 693.909119,281.551910 693.907776,279.763916 
	C693.890015,256.275818 693.872559,232.787704 693.853577,209.299591 
	C693.839233,191.641876 693.869324,173.983765 693.722351,156.327118 
	C693.710022,154.847733 692.579407,152.148972 691.832764,152.100403 
	C686.277466,151.739059 680.687927,151.904297 674.943481,151.904297 
	C674.943481,170.505997 674.834961,188.320465 675.027954,206.131668 
	C675.070557,210.060898 673.971619,211.298859 669.975586,211.246628 
	C654.486267,211.044159 638.992432,211.181229 622.500427,211.191879 
M937.591309,226.660324 
	C940.222717,227.695343 942.929749,228.573227 945.471313,229.795029 
	C952.957397,233.393723 958.503784,238.367035 958.194214,247.657547 
	C957.869141,257.411774 953.721802,264.707489 944.644897,268.515503 
	C935.472717,272.363495 925.975525,272.189087 916.933777,268.228302 
	C911.965576,266.051941 907.485168,262.703491 902.924866,259.672760 
	C899.160156,257.170776 896.240784,257.537659 893.542297,261.262024 
	C888.378723,268.388214 888.189331,269.336823 892.799622,273.216461 
	C908.381104,286.328430 926.359802,289.765778 945.751892,285.070068 
	C959.618286,281.712463 969.169434,272.830261 973.850891,259.121277 
	C979.683838,242.040359 975.252747,226.507248 961.536621,217.585007 
	C957.264587,214.806137 952.320923,212.989532 947.552002,211.060349 
	C939.226624,207.692383 930.594177,205.015472 922.477966,201.220062 
	C915.980591,198.181671 911.577454,192.885895 912.138794,185.007980 
	C912.710754,176.979660 916.699097,171.127777 924.223267,168.146652 
	C935.605469,163.636993 946.410950,165.478287 956.610962,171.826035 
	C965.878174,177.593201 966.383606,177.473663 971.302917,167.651688 
	C971.452026,167.353912 971.790161,167.033890 971.745605,166.774963 
	C971.455505,165.089737 971.669189,162.801056 970.650818,161.835449 
	C955.723572,147.682526 925.859497,145.759201 909.260986,157.948563 
	C897.788940,166.373230 893.236633,178.076920 894.681702,192.062302 
	C896.049744,205.302002 903.708862,214.004578 915.650757,218.966797 
	C922.555359,221.835922 929.767151,223.965958 937.591309,226.660324 
M435.169525,253.500000 
	C435.169495,276.981506 435.169312,300.463043 435.169556,323.944550 
	C435.169617,328.274475 435.008179,332.614624 435.279541,336.927551 
	C435.353302,338.099396 436.734924,339.188965 437.516296,340.316284 
	C438.014160,340.044159 438.511993,339.772034 439.009857,339.499908 
	C439.009857,338.028351 439.009857,336.556763 439.009857,335.085205 
	C439.009857,256.813538 439.009979,178.541870 439.009064,100.270195 
	C439.009064,99.271049 439.224274,98.194427 438.919037,97.296806 
	C438.665802,96.552094 437.795227,95.526451 437.193298,95.523209 
	C436.533783,95.519669 435.472626,96.444641 435.293030,97.145920 
	C434.972168,98.398750 435.171051,99.787399 435.171021,101.119270 
	C435.169250,151.579514 435.169586,202.039764 435.169525,253.500000 
z"/>
<path fill="#60655F" opacity="1.000000" stroke="none" 
	d="
M866.593506,246.000214 
	C866.608154,257.999573 866.519714,269.500519 866.699829,280.997223 
	C866.752930,284.389984 865.857239,285.877869 862.227417,285.624695 
	C858.297180,285.350555 854.333069,285.562592 849.576416,285.562592 
	C849.576416,251.567337 849.576416,218.235641 849.576416,184.903931 
	C849.125305,184.776779 848.674133,184.649612 848.223022,184.522446 
	C847.212891,186.106857 846.107361,187.639023 845.206970,189.283524 
	C832.325684,212.811172 819.460632,236.347748 806.623779,259.899658 
	C804.629639,263.558411 802.397949,266.620850 797.609680,266.675476 
	C793.062439,266.727386 790.242249,264.664398 788.078613,260.760345 
	C774.591553,236.424438 760.976990,212.159149 747.390381,187.878525 
	C746.530090,186.341080 745.548950,184.871277 743.766785,183.564453 
	C743.766785,217.385803 743.766785,251.207138 743.766785,285.362976 
	C738.005127,285.362976 732.786804,285.362976 727.237488,285.362976 
	C727.237488,240.894211 727.237488,196.663208 727.237488,151.917343 
	C732.714844,151.917343 738.034729,151.538940 743.245422,152.127274 
	C745.014526,152.327011 747.011841,154.682419 748.052368,156.532333 
	C764.058838,184.989868 779.923706,213.527084 795.829224,242.041458 
	C796.063416,242.461258 796.395935,242.826202 796.952881,243.585129 
	C797.609985,242.759247 798.270020,242.137360 798.683167,241.380707 
	C814.249451,212.870422 829.803162,184.353302 845.324036,155.818298 
	C846.917786,152.888214 849.108459,151.441071 852.557434,151.590286 
	C857.002808,151.782608 861.462830,151.637100 866.592957,151.637100 
	C866.592957,183.268066 866.592957,214.384125 866.593506,246.000214 
z"/>
<path fill="#7E909B" opacity="1.000000" stroke="none" 
	d="
M298.000000,384.917572 
	C210.554047,384.917511 123.608086,384.917511 36.349575,384.917511 
	C36.349575,273.448425 36.349575,162.688126 36.349575,51.486012 
	C146.994461,51.486012 257.563660,51.486012 368.650482,51.486012 
	C368.650482,162.235138 368.650482,273.113129 368.650482,384.917633 
	C345.330048,384.917633 321.915039,384.917633 298.000000,384.917572 
M41.298534,228.112671 
	C39.327900,229.801102 39.252293,231.157654 41.983353,232.894714 
	C41.987278,234.930130 41.991203,236.965546 41.989517,239.938141 
	C41.990837,283.931274 41.991356,327.924377 41.994286,371.917511 
	C41.994766,379.151489 42.801071,380.001556 49.944580,380.002075 
	C152.262039,380.009735 254.579514,380.009003 356.896973,380.003448 
	C363.739990,380.003082 365.002258,378.731079 365.002594,371.849121 
	C365.007660,269.031738 365.007141,166.214340 365.003540,63.396946 
	C365.003326,57.012978 363.996552,56.002743 357.368317,56.002041 
	C254.717560,55.991154 152.066803,55.990211 49.416054,56.004589 
	C42.964928,56.005489 41.995831,57.056248 41.995304,63.612270 
	C41.991833,106.772247 42.016987,149.932266 41.930428,193.092072 
	C41.925667,195.467041 40.678764,197.826981 40.582512,200.216980 
	C40.395775,204.853683 37.895844,209.798508 41.994087,214.897217 
	C41.996311,217.264816 41.998539,219.632401 41.993263,222.833328 
	C41.995461,224.222305 41.997654,225.611282 41.992554,227.493317 
	C41.992554,227.493317 41.990871,227.986435 41.298534,228.112671 
z"/>
<path fill="#60655F" opacity="1.000000" stroke="none" 
	d="
M623.000366,211.191895 
	C638.992432,211.181229 654.486267,211.044159 669.975586,211.246628 
	C673.971619,211.298859 675.070557,210.060898 675.027954,206.131668 
	C674.834961,188.320465 674.943481,170.505997 674.943481,151.904297 
	C680.687927,151.904297 686.277466,151.739059 691.832764,152.100403 
	C692.579407,152.148972 693.710022,154.847733 693.722351,156.327118 
	C693.869324,173.983765 693.839233,191.641876 693.853577,209.299591 
	C693.872559,232.787704 693.890015,256.275818 693.907776,279.763916 
	C693.909119,281.551910 693.907898,283.339905 693.907898,285.427917 
	C687.422180,285.427917 681.519897,285.427917 675.133545,285.427917 
	C675.133545,265.565338 675.133545,245.812592 675.133545,225.595764 
	C651.298584,225.595764 627.934631,225.595764 603.991577,225.595764 
	C603.991577,245.344574 603.991577,265.223358 603.991577,285.456482 
	C597.524841,285.456482 591.621643,285.456482 585.288330,285.456482 
	C585.288330,241.178757 585.288330,196.834259 585.288330,152.184860 
	C591.284668,152.184860 597.188232,152.184860 603.653931,152.184860 
	C603.653931,171.750488 603.653931,191.153290 603.653931,211.191879 
	C610.298706,211.191879 616.399597,211.191879 623.000366,211.191895 
z"/>
<path fill="#616560" opacity="1.000000" stroke="none" 
	d="
M937.216003,226.544464 
	C929.767151,223.965958 922.555359,221.835922 915.650757,218.966797 
	C903.708862,214.004578 896.049744,205.302002 894.681702,192.062302 
	C893.236633,178.076920 897.788940,166.373230 909.260986,157.948563 
	C925.859497,145.759201 955.723572,147.682526 970.650818,161.835449 
	C971.669189,162.801056 971.455505,165.089737 971.745605,166.774963 
	C971.790161,167.033890 971.452026,167.353912 971.302917,167.651688 
	C966.383606,177.473663 965.878174,177.593201 956.610962,171.826035 
	C946.410950,165.478287 935.605469,163.636993 924.223267,168.146652 
	C916.699097,171.127777 912.710754,176.979660 912.138794,185.007980 
	C911.577454,192.885895 915.980591,198.181671 922.477966,201.220062 
	C930.594177,205.015472 939.226624,207.692383 947.552002,211.060349 
	C952.320923,212.989532 957.264587,214.806137 961.536621,217.585007 
	C975.252747,226.507248 979.683838,242.040359 973.850891,259.121277 
	C969.169434,272.830261 959.618286,281.712463 945.751892,285.070068 
	C926.359802,289.765778 908.381104,286.328430 892.799622,273.216461 
	C888.189331,269.336823 888.378723,268.388214 893.542297,261.262024 
	C896.240784,257.537659 899.160156,257.170776 902.924866,259.672760 
	C907.485168,262.703491 911.965576,266.051941 916.933777,268.228302 
	C925.975525,272.189087 935.472717,272.363495 944.644897,268.515503 
	C953.721802,264.707489 957.869141,257.411774 958.194214,247.657547 
	C958.503784,238.367035 952.957397,233.393723 945.471313,229.795029 
	C942.929749,228.573227 940.222717,227.695343 937.216003,226.544464 
z"/>
<path fill="#77777A" opacity="1.000000" stroke="none" 
	d="
M435.169617,253.000000 
	C435.169586,202.039764 435.169250,151.579514 435.171021,101.119270 
	C435.171051,99.787399 434.972168,98.398750 435.293030,97.145920 
	C435.472626,96.444641 436.533783,95.519669 437.193298,95.523209 
	C437.795227,95.526451 438.665802,96.552094 438.919037,97.296806 
	C439.224274,98.194427 439.009064,99.271049 439.009064,100.270195 
	C439.009979,178.541870 439.009857,256.813538 439.009857,335.085205 
	C439.009857,336.556763 439.009857,338.028351 439.009857,339.499908 
	C438.511993,339.772034 438.014160,340.044159 437.516296,340.316284 
	C436.734924,339.188965 435.353302,338.099396 435.279541,336.927551 
	C435.008179,332.614624 435.169617,328.274475 435.169556,323.944550 
	C435.169312,300.463043 435.169495,276.981506 435.169617,253.000000 
z"/>
<path fill="#6E818D" opacity="1.000000" stroke="none" 
	d="
M41.992016,214.011200 
	C37.895844,209.798508 40.395775,204.853683 40.582512,200.216980 
	C40.678764,197.826981 41.925667,195.467041 41.930428,193.092072 
	C42.016987,149.932266 41.991833,106.772247 41.995304,63.612270 
	C41.995831,57.056248 42.964928,56.005489 49.416054,56.004589 
	C152.066803,55.990211 254.717560,55.991154 357.368317,56.002041 
	C363.996552,56.002743 365.003326,57.012978 365.003540,63.396946 
	C365.007141,166.214340 365.007660,269.031738 365.002594,371.849121 
	C365.002258,378.731079 363.739990,380.003082 356.896973,380.003448 
	C254.579514,380.009003 152.262039,380.009735 49.944580,380.002075 
	C42.801071,380.001556 41.994766,379.151489 41.994286,371.917511 
	C41.991356,327.924377 41.990837,283.931274 42.351616,239.531693 
	C46.962017,242.129959 50.687431,245.387100 53.690296,249.943008 
	C62.712975,263.632141 76.167740,270.851929 92.000687,274.411255 
	C91.333260,280.376923 90.143593,285.926575 90.092392,291.486694 
	C89.882690,314.262665 112.537224,332.448608 134.819977,327.486145 
	C138.843033,326.590179 141.120453,327.394897 142.338104,331.490265 
	C145.675034,342.713196 151.809509,352.127258 160.488968,360.076508 
	C174.032898,372.480927 190.243042,377.467407 207.816956,374.598572 
	C233.287201,370.440704 250.090424,355.325348 257.468597,329.998291 
	C264.754456,329.901672 271.695984,330.600891 278.365997,329.559998 
	C299.736542,326.224976 314.029968,303.563232 309.180725,283.081909 
	C308.207458,278.971161 309.666534,276.469086 313.718872,275.173767 
	C324.655426,271.678009 333.819397,265.839355 341.707397,257.123138 
	C351.526001,246.273605 356.440216,233.606308 356.741943,219.673950 
	C357.141174,201.239670 350.022278,185.313751 335.626831,173.266815 
	C331.478455,169.795181 327.073029,165.884766 322.107513,164.300781 
	C313.487061,161.550858 311.797760,160.743423 312.038757,151.967102 
	C312.725342,126.963097 288.217773,108.310303 265.797363,112.825264 
	C262.377075,113.514046 259.830444,112.822823 258.923737,108.500908 
	C250.635269,68.993103 208.521591,49.746407 172.837906,67.722229 
	C169.513138,69.397110 166.926773,72.537781 163.632538,75.002556 
	C161.772217,75.911324 160.089630,76.606400 158.811096,77.752304 
	C147.987717,87.452904 143.727509,100.595184 139.586517,113.947464 
	C120.976379,109.061409 97.413528,123.148087 95.062241,148.091553 
	C94.251549,156.691605 94.497124,156.989441 85.556000,159.016327 
	C62.886284,164.155350 41.755466,188.806473 41.992016,214.011200 
z"/>
<path fill="#6C7789" opacity="1.000000" stroke="none" 
	d="
M41.993050,214.454208 
	C41.755466,188.806473 62.886284,164.155350 85.556000,159.016327 
	C94.497124,156.989441 94.251549,156.691605 95.062241,148.091553 
	C97.413528,123.148087 120.976379,109.061409 139.694946,114.166962 
	C140.416916,114.712723 140.678879,114.899841 141.001556,115.341904 
	C140.997635,116.139572 140.994888,116.595688 140.524826,117.048676 
	C131.678375,117.007782 123.361099,116.229881 115.697899,121.437859 
	C108.943771,126.028038 103.636505,131.392914 100.980324,139.173294 
	C98.272469,147.105072 99.169403,155.042953 100.533318,162.988541 
	C78.947571,163.130203 59.967014,176.208130 52.110790,195.756042 
	C45.514576,212.168808 46.838295,228.124100 55.799828,242.978745 
	C65.895866,259.713989 81.401131,267.914032 100.949371,268.571960 
	C99.981262,269.944336 99.051720,270.998901 97.743118,272.038452 
	C95.576668,272.682312 93.789284,273.341156 92.001900,274.000000 
	C76.167740,270.851929 62.712975,263.632141 53.690296,249.943008 
	C50.687431,245.387100 46.962017,242.129959 42.354416,239.063110 
	C41.991203,236.965546 41.987278,234.930130 41.990238,232.054718 
	C41.995041,230.138611 41.992958,229.062531 41.990875,227.986435 
	C41.990871,227.986435 41.992554,227.493317 42.356834,227.180389 
	C44.459923,224.952087 45.092793,223.200409 42.000763,222.000000 
	C41.998539,219.632401 41.996311,217.264816 41.993050,214.454208 
z"/>
<path fill="#6E818D" opacity="1.000000" stroke="none" 
	d="
M41.997013,222.416656 
	C45.092793,223.200409 44.459923,224.952087 42.360481,226.933853 
	C41.997654,225.611282 41.995461,224.222305 41.997013,222.416656 
z"/>
<path fill="#6E818D" opacity="1.000000" stroke="none" 
	d="
M41.644707,228.049561 
	C41.992958,229.062531 41.995041,230.138611 41.990204,231.618713 
	C39.252293,231.157654 39.327900,229.801102 41.644707,228.049561 
z"/>
<path fill="#628087" opacity="1.000000" stroke="none" 
	d="
M92.000687,274.411255 
	C93.789284,273.341156 95.576668,272.682312 97.572449,272.378906 
	C96.521538,278.871979 94.052979,285.048401 94.248482,291.139313 
	C94.688805,304.857666 101.725517,315.314758 114.392044,320.660400 
	C124.222031,324.808899 134.582748,325.623749 144.074615,318.680634 
	C144.786499,318.159851 145.955841,318.264435 146.929871,318.444336 
	C146.966202,319.544678 146.985199,320.278931 146.987259,321.260986 
	C146.970337,321.508789 147.029663,322.001984 147.032120,322.328003 
	C147.069305,323.087189 147.104050,323.520355 147.185486,324.189392 
	C147.393066,324.716431 147.623611,324.933746 147.947235,325.473846 
	C151.090561,342.038727 160.153854,354.076508 174.258743,362.089447 
	C185.730133,368.606354 197.946365,370.141846 211.181870,367.314056 
	C232.675873,362.721832 250.811905,342.861725 252.434998,321.016602 
	C254.887650,321.942780 256.969940,322.893585 259.034912,324.215210 
	C258.345032,326.389923 257.672516,328.193726 257.000000,329.997559 
	C250.090424,355.325348 233.287201,370.440704 207.816956,374.598572 
	C190.243042,377.467407 174.032898,372.480927 160.488968,360.076508 
	C151.809509,352.127258 145.675034,342.713196 142.338104,331.490265 
	C141.120453,327.394897 138.843033,326.590179 134.819977,327.486145 
	C112.537224,332.448608 89.882690,314.262665 90.092392,291.486694 
	C90.143593,285.926575 91.333260,280.376923 92.000687,274.411255 
z"/>
<path fill="#657C8A" opacity="1.000000" stroke="none" 
	d="
M257.468597,329.998291 
	C257.672516,328.193726 258.345032,326.389923 259.462891,324.250977 
	C261.374176,324.141541 262.853821,324.625580 264.303711,324.548706 
	C271.008606,324.193207 278.417847,325.358521 284.256317,322.876984 
	C296.385590,317.721649 303.397003,307.696564 304.542053,293.946198 
	C304.653290,292.222382 304.431122,290.591522 304.167969,288.532288 
	C304.063782,286.096008 304.000519,284.088165 303.940674,281.772278 
	C303.630798,280.975342 303.317535,280.486450 302.983154,279.675385 
	C302.918091,278.925720 302.874207,278.498199 303.150848,277.925476 
	C307.057983,275.890503 310.609680,273.929718 314.247131,272.143494 
	C315.862061,271.350433 317.694427,271.012177 319.352722,270.293549 
	C335.190338,263.429901 345.647156,251.636459 351.277496,235.408447 
	C356.499176,220.358353 354.299896,205.825211 347.304718,192.086517 
	C340.084442,177.905624 328.121735,168.955536 313.157043,163.686462 
	C311.351227,163.050629 309.793762,160.247284 309.161041,158.136810 
	C308.474030,155.845245 308.975433,153.188889 309.005493,150.692154 
	C309.266174,129.031357 287.859619,111.102348 266.276459,115.752647 
	C260.491730,116.999031 258.378357,115.602531 256.991516,109.947189 
	C256.676086,108.660957 256.326874,107.382957 256.015137,106.095863 
	C248.769073,76.176567 217.759781,56.959320 188.028641,64.714157 
	C179.692291,66.888542 171.993088,71.505592 164.000824,75.001091 
	C164.000000,75.000000 163.997559,74.997864 163.997559,74.997864 
	C166.926773,72.537781 169.513138,69.397110 172.837906,67.722229 
	C208.521591,49.746407 250.635269,68.993103 258.923737,108.500908 
	C259.830444,112.822823 262.377075,113.514046 265.797363,112.825264 
	C288.217773,108.310303 312.725342,126.963097 312.038757,151.967102 
	C311.797760,160.743423 313.487061,161.550858 322.107513,164.300781 
	C327.073029,165.884766 331.478455,169.795181 335.626831,173.266815 
	C350.022278,185.313751 357.141174,201.239670 356.741943,219.673950 
	C356.440216,233.606308 351.526001,246.273605 341.707397,257.123138 
	C333.819397,265.839355 324.655426,271.678009 313.718872,275.173767 
	C309.666534,276.469086 308.207458,278.971161 309.180725,283.081909 
	C314.029968,303.563232 299.736542,326.224976 278.365997,329.559998 
	C271.695984,330.600891 264.754456,329.901672 257.468597,329.998291 
z"/>
<path fill="#657C8A" opacity="1.000000" stroke="none" 
	d="
M141.002716,115.000351 
	C140.678879,114.899841 140.416916,114.712723 140.108429,114.219498 
	C143.727509,100.595184 147.987717,87.452904 158.811096,77.752304 
	C160.089630,76.606400 161.772217,75.911324 163.632538,75.002556 
	C163.997559,74.997864 164.000000,75.000000 163.855591,75.300194 
	C153.265945,85.067955 146.526169,96.691116 143.274506,110.402786 
	C142.890121,112.023735 141.777679,113.472023 141.002716,115.000351 
z"/>
<path fill="#85C6AD" opacity="1.000000" stroke="none" 
	d="
M100.987923,268.254150 
	C81.401131,267.914032 65.895866,259.713989 55.799828,242.978745 
	C46.838295,228.124100 45.514576,212.168808 52.110790,195.756042 
	C59.967014,176.208130 78.947571,163.130203 100.981964,163.000916 
	C111.486946,162.689758 119.992775,166.162155 129.005646,171.265442 
	C132.851273,167.164597 136.870316,162.984268 140.763397,158.689743 
	C143.286209,155.906754 145.624985,152.956924 148.364990,150.055222 
	C149.110809,150.008560 149.537888,149.988541 150.273193,150.123016 
	C155.253510,155.076523 159.954422,159.848282 164.554092,164.715729 
	C165.025970,165.215073 164.892059,166.286896 164.888306,167.386993 
	C159.360291,173.109787 154.097733,178.659363 148.556076,183.914658 
	C145.932266,186.402893 145.637146,188.533325 147.309418,191.738556 
	C152.687912,202.047363 154.781387,213.089554 152.029388,224.458786 
	C150.334137,231.462341 147.311127,238.144485 144.610016,245.155121 
	C139.195557,250.511581 134.055344,255.683838 128.548370,260.893738 
	C119.711990,265.581696 110.750145,268.404053 100.987923,268.254150 
z"/>
<path fill="#9F80A5" opacity="1.000000" stroke="none" 
	d="
M100.949371,268.571960 
	C110.750145,268.404053 119.711990,265.581696 128.598755,261.253204 
	C130.124512,262.991211 131.108002,264.530823 132.362808,265.802795 
	C138.788239,272.316284 145.211807,278.835114 151.793350,285.189117 
	C154.104309,287.420166 154.476334,289.509277 152.912064,292.238892 
	C148.327301,300.239288 146.844254,308.984589 146.912537,318.078308 
	C145.955841,318.264435 144.786499,318.159851 144.074615,318.680634 
	C134.582748,325.623749 124.222031,324.808899 114.392044,320.660400 
	C101.725517,315.314758 94.688805,304.857666 94.248482,291.139313 
	C94.052979,285.048401 96.521538,278.871979 97.951508,272.393921 
	C99.051720,270.998901 99.981262,269.944336 100.949371,268.571960 
z"/>
<path fill="#78A29F" opacity="1.000000" stroke="none" 
	d="
M148.046234,150.081863 
	C145.624985,152.956924 143.286209,155.906754 140.763397,158.689743 
	C136.870316,162.984268 132.851273,167.164597 129.005646,171.265442 
	C119.992775,166.162155 111.486946,162.689758 101.426704,162.990555 
	C99.169403,155.042953 98.272469,147.105072 100.980324,139.173294 
	C103.636505,131.392914 108.943771,126.028038 115.697899,121.437859 
	C123.361099,116.229881 131.678375,117.007782 140.763397,117.203934 
	C141.655731,117.889717 141.842194,118.417107 142.019012,119.415474 
	C140.807800,130.594116 144.244247,140.374542 148.046234,150.081863 
z"/>
<path fill="#607989" opacity="1.000000" stroke="none" 
	d="
M142.028656,118.944496 
	C141.842194,118.417107 141.655731,117.889717 141.230698,117.207062 
	C140.994888,116.595688 140.997635,116.139572 141.001556,115.341904 
	C141.777679,113.472023 142.890121,112.023735 143.274506,110.402786 
	C146.526169,96.691116 153.265945,85.067955 163.856415,75.301285 
	C171.993088,71.505592 179.692291,66.888542 188.028641,64.714157 
	C217.759781,56.959320 248.769073,76.176567 256.015137,106.095863 
	C256.326874,107.382957 256.676086,108.660957 256.991516,109.947189 
	C258.378357,115.602531 260.491730,116.999031 266.276459,115.752647 
	C287.859619,111.102348 309.266174,129.031357 309.005493,150.692154 
	C308.975433,153.188889 308.474030,155.845245 309.161041,158.136810 
	C309.793762,160.247284 311.351227,163.050629 313.157043,163.686462 
	C328.121735,168.955536 340.084442,177.905624 347.304718,192.086517 
	C354.299896,205.825211 356.499176,220.358353 351.277496,235.408447 
	C345.647156,251.636459 335.190338,263.429901 319.352722,270.293549 
	C317.694427,271.012177 315.862061,271.350433 314.247131,272.143494 
	C310.609680,273.929718 307.057983,275.890503 302.875427,277.752808 
	C300.873779,275.499725 299.468048,273.274078 298.435150,271.019592 
	C300.524750,270.710785 302.241516,270.430847 304.128601,270.349243 
	C304.868652,270.368774 305.438385,270.189941 306.391663,269.974060 
	C309.562683,269.297699 312.350220,268.658447 315.301636,267.928955 
	C315.676239,267.695404 315.835297,267.508240 316.300751,267.210083 
	C317.141876,267.096832 317.624969,267.050690 318.275146,266.925293 
	C318.656555,266.713684 318.817902,266.533844 319.273315,266.179993 
	C333.658630,258.886871 343.616241,248.193497 348.456177,232.738647 
	C348.765625,232.065994 348.882935,231.565704 349.025665,230.644485 
	C353.562653,206.851883 344.135162,184.734848 323.820007,172.535431 
	C323.535889,172.197861 323.324188,172.067368 322.715149,171.941177 
	C318.536621,170.471695 314.722900,169.050644 310.821899,167.533844 
	C310.469391,167.314835 310.252869,167.383270 309.739075,167.704742 
	C308.929016,167.721207 308.464874,167.676315 307.943329,167.361588 
	C306.994781,166.899094 306.103668,166.706406 304.933838,166.575012 
	C304.154755,166.435501 303.654327,166.234695 303.258057,166.003845 
	C303.362183,165.973770 303.535492,165.843582 303.587891,165.745682 
	C303.686707,165.406784 303.598572,165.221878 303.428162,164.730072 
	C306.743713,157.096191 306.450714,149.576782 305.264374,141.811920 
	C305.026642,141.095139 304.569489,140.546021 303.939331,139.684235 
	C301.694183,136.008148 299.910797,132.420029 297.498718,129.321304 
	C288.369690,117.593567 265.687500,114.326797 255.463928,123.891754 
	C254.455063,123.888885 253.783508,123.872337 253.093536,123.408722 
	C253.470459,109.674515 249.670074,97.789238 241.317200,87.377121 
	C224.474976,66.382828 194.567230,61.801533 171.847488,76.516983 
	C156.089020,86.723656 148.818329,101.651932 147.338196,119.983307 
	C145.326035,119.629822 143.677353,119.287155 142.028656,118.944496 
z"/>
<path fill="#C984B2" opacity="1.000000" stroke="none" 
	d="
M146.929871,318.444336 
	C146.844254,308.984589 148.327301,300.239288 152.912064,292.238892 
	C154.476334,289.509277 154.104309,287.420166 151.793350,285.189117 
	C145.211807,278.835114 138.788239,272.316284 132.362808,265.802795 
	C131.108002,264.530823 130.124512,262.991211 128.965515,261.215576 
	C134.055344,255.683838 139.195557,250.511581 144.910675,245.283615 
	C146.650101,246.157623 147.814636,247.087326 149.128128,248.314056 
	C155.927795,255.327286 162.622711,262.000641 169.201477,268.786591 
	C171.099579,270.744476 172.467194,270.575012 175.141830,269.673859 
	C183.196426,266.959961 191.607086,263.303772 199.791595,263.508331 
	C208.901749,263.736023 217.915894,267.804565 227.031891,270.493439 
	C227.705826,271.191498 228.319733,271.597198 229.127106,272.271881 
	C230.855240,273.378418 232.389938,274.215973 233.977753,275.393616 
	C236.337570,277.846466 238.644226,279.959229 240.994598,282.411194 
	C242.336609,284.181244 243.634903,285.612061 244.948654,287.419556 
	C250.044754,298.298309 253.342270,309.181183 252.064621,321.041229 
	C250.811905,342.861725 232.675873,362.721832 211.181870,367.314056 
	C197.946365,370.141846 185.730133,368.606354 174.258743,362.089447 
	C160.153854,354.076508 151.090561,342.038727 147.895264,325.237976 
	C147.677795,324.299347 147.450775,324.082062 147.138779,323.953552 
	C147.104050,323.520355 147.069305,323.087189 147.199219,322.240509 
	C147.243958,321.555756 147.124069,321.284485 147.004181,321.013214 
	C146.985199,320.278931 146.966202,319.544678 146.929871,318.444336 
z"/>
<path fill="#9F93A7" opacity="1.000000" stroke="none" 
	d="
M252.434998,321.016602 
	C253.342270,309.181183 250.044754,298.298309 245.252747,287.265228 
	C252.369705,279.771332 259.390259,272.982361 265.926788,265.755615 
	C268.363892,263.061188 270.180878,262.827637 273.075714,264.511200 
	C280.777985,268.990540 289.181427,270.977966 298.062317,271.048431 
	C299.468048,273.274078 300.873779,275.499725 302.554932,277.898041 
	C302.874207,278.498199 302.918091,278.925720 302.993408,279.977600 
	C303.328979,281.094788 303.633118,281.587555 303.937256,282.080292 
	C304.000519,284.088165 304.063782,286.096008 304.106934,288.953247 
	C304.127441,291.214783 304.168030,292.626984 304.208649,294.039185 
	C303.397003,307.696564 296.385590,317.721649 284.256317,322.876984 
	C278.417847,325.358521 271.008606,324.193207 264.303711,324.548706 
	C262.853821,324.625580 261.374176,324.141541 259.480225,323.880127 
	C256.969940,322.893585 254.887650,321.942780 252.434998,321.016602 
z"/>
<path fill="#9F80A5" opacity="1.000000" stroke="none" 
	d="
M146.987259,321.260986 
	C147.124069,321.284485 147.243958,321.555756 147.196747,321.914490 
	C147.029663,322.001984 146.970337,321.508789 146.987259,321.260986 
z"/>
<path fill="#9F80A5" opacity="1.000000" stroke="none" 
	d="
M147.185486,324.189392 
	C147.450775,324.082062 147.677795,324.299347 147.871857,324.841248 
	C147.623611,324.933746 147.393066,324.716431 147.185486,324.189392 
z"/>
<path fill="#74808E" opacity="1.000000" stroke="none" 
	d="
M304.542053,293.946198 
	C304.168030,292.626984 304.127441,291.214783 304.147888,289.381653 
	C304.431122,290.591522 304.653290,292.222382 304.542053,293.946198 
z"/>
<path fill="#74808E" opacity="1.000000" stroke="none" 
	d="
M303.940674,281.772278 
	C303.633118,281.587555 303.328979,281.094788 303.014587,280.299805 
	C303.317535,280.486450 303.630798,280.975342 303.940674,281.772278 
z"/>
<path fill="#6C7789" opacity="1.000000" stroke="none" 
	d="
M148.979172,248.017029 
	C147.814636,247.087326 146.650101,246.157623 145.184906,245.099426 
	C147.311127,238.144485 150.334137,231.462341 152.029388,224.458786 
	C154.781387,213.089554 152.687912,202.047363 147.309418,191.738556 
	C145.637146,188.533325 145.932266,186.402893 148.556076,183.914658 
	C154.097733,178.659363 159.360291,173.109787 165.167877,167.246872 
	C166.341583,166.446426 167.084763,166.080032 167.883911,166.177704 
	C167.960129,168.759750 167.980377,170.877747 167.856323,173.295593 
	C164.689865,176.681412 161.863846,179.996338 158.596054,182.795517 
	C154.489151,186.313492 153.957001,190.165878 155.453247,195.188736 
	C157.091614,200.688721 158.228363,206.404160 158.919266,212.106201 
	C160.235001,222.964691 156.785538,233.046768 152.639923,243.005692 
	C148.076782,242.631073 149.346268,245.863907 148.979172,248.017029 
z"/>
<path fill="#6AA19E" opacity="1.000000" stroke="none" 
	d="
M142.019012,119.415474 
	C143.677353,119.287155 145.326035,119.629822 147.421875,120.431320 
	C149.618652,128.911682 151.368286,136.933197 153.058929,145.288116 
	C151.988266,147.070511 150.976608,148.519516 149.964951,149.968536 
	C149.537888,149.988541 149.110809,150.008560 148.364990,150.055222 
	C144.244247,140.374542 140.807800,130.594116 142.019012,119.415474 
z"/>
<path fill="#7AC7AD" opacity="1.000000" stroke="none" 
	d="
M150.273193,150.123016 
	C150.976608,148.519516 151.988266,147.070511 153.391708,145.339325 
	C155.641235,147.342331 157.436371,149.682098 159.370758,151.900452 
	C162.597198,155.600540 165.912766,159.222931 169.039032,163.163376 
	C168.534134,164.203690 168.181030,164.958664 167.827927,165.713638 
	C167.084763,166.080032 166.341583,166.446426 165.318832,166.952942 
	C164.892059,166.286896 165.025970,165.215073 164.554092,164.715729 
	C159.954422,159.848282 155.253510,155.076523 150.273193,150.123016 
z"/>
<path fill="#E1C0B1" opacity="1.000000" stroke="none" 
	d="
M169.190811,162.878036 
	C165.912766,159.222931 162.597198,155.600540 159.370758,151.900452 
	C157.436371,149.682098 155.641235,147.342331 153.450714,145.005936 
	C151.368286,136.933197 149.618652,128.911682 147.785339,120.442139 
	C148.818329,101.651932 156.089020,86.723656 171.847488,76.516983 
	C194.567230,61.801533 224.474976,66.382828 241.317200,87.377121 
	C249.670074,97.789238 253.470459,109.674515 253.047043,123.845848 
	C251.160339,131.200943 249.696457,137.823685 247.288635,144.083328 
	C245.938126,147.594299 246.060410,149.735291 248.782364,152.373352 
	C255.703995,159.081726 262.339630,166.085159 268.922607,173.271835 
	C264.169891,178.381454 259.584351,183.189743 254.608429,188.002899 
	C253.437851,188.033051 252.657623,188.058319 251.596161,187.913757 
	C244.719055,181.210373 238.044769,174.753098 231.572052,168.099716 
	C229.452515,165.921021 227.987732,165.196136 224.901291,166.913406 
	C220.766525,169.213913 216.146393,170.992065 211.518051,171.991394 
	C196.129395,175.314056 182.020340,171.863876 169.190811,162.878036 
z"/>
<path fill="#B89EA4" opacity="1.000000" stroke="none" 
	d="
M269.089752,172.970490 
	C262.339630,166.085159 255.703995,159.081726 248.782364,152.373352 
	C246.060410,149.735291 245.938126,147.594299 247.288635,144.083328 
	C249.696457,137.823685 251.160339,131.200943 253.065460,124.292915 
	C253.783508,123.872337 254.455063,123.888885 255.769623,124.092194 
	C259.033691,129.757172 263.398163,129.462173 268.150909,127.800545 
	C277.378021,124.574608 294.656433,133.636536 296.102692,142.819748 
	C297.320435,150.552139 298.691010,158.260452 299.594513,165.983429 
	C298.130096,165.990997 297.065033,165.994583 295.553162,165.996948 
	C291.070496,166.498734 286.906372,166.541534 283.031555,167.622040 
	C278.258301,168.953079 273.726135,171.148590 269.089752,172.970490 
z"/>
<path fill="#C3B0AF" opacity="1.000000" stroke="none" 
	d="
M296.000000,165.998169 
	C297.065033,165.994583 298.130096,165.990997 299.988098,165.990479 
	C301.572021,166.006989 302.362976,166.020447 303.153931,166.033905 
	C303.654327,166.234695 304.154755,166.435501 305.155823,166.813446 
	C306.437927,167.204208 307.219330,167.417801 308.000732,167.631409 
	C308.464874,167.676315 308.929016,167.721207 309.945801,167.760651 
	C310.498474,167.755203 310.909210,167.629578 310.909210,167.629578 
	C314.722900,169.050644 318.536621,170.471695 322.785339,172.132919 
	C323.388306,172.627701 323.623199,172.733261 323.925018,172.689774 
	C344.135162,184.734848 353.562653,206.851883 348.795227,230.792526 
	C348.447540,231.878021 348.355774,232.394531 348.264008,232.911041 
	C343.616241,248.193497 333.658630,258.886871 319.076416,266.203461 
	C318.279114,266.497375 318.137665,266.714447 318.108093,267.004578 
	C317.624969,267.050690 317.141876,267.096832 316.090088,267.220764 
	C315.255463,267.465118 315.127594,267.705322 315.137756,268.019196 
	C312.350220,268.658447 309.562683,269.297699 306.237701,269.740143 
	C305.119598,269.745850 304.538940,269.948395 303.958282,270.150909 
	C302.241516,270.430847 300.524750,270.710785 298.435150,271.019592 
	C289.181427,270.977966 280.777985,268.990540 273.075714,264.511200 
	C270.180878,262.827637 268.363892,263.061188 265.926788,265.755615 
	C259.390259,272.982361 252.369705,279.771332 245.237305,286.888550 
	C243.634903,285.612061 242.336609,284.181244 241.148560,282.100647 
	C247.134216,275.840973 252.915649,270.128204 258.912537,264.651337 
	C264.452728,259.591553 270.666565,257.716187 278.018280,260.963623 
	C293.544739,267.822144 308.322876,264.413605 321.822784,255.919632 
	C343.757263,242.118713 348.544769,215.399719 335.745178,194.615036 
	C329.013641,183.683945 319.190002,177.045715 306.676392,173.746857 
	C302.614502,172.676071 296.454163,172.767654 296.000000,165.998169 
z"/>
<path fill="#BCA2A6" opacity="1.000000" stroke="none" 
	d="
M303.258057,166.003845 
	C302.362976,166.020447 301.572021,166.006989 300.387482,165.986481 
	C298.691010,158.260452 297.320435,150.552139 296.102692,142.819748 
	C294.656433,133.636536 277.378021,124.574608 268.150909,127.800545 
	C263.398163,129.462173 259.033691,129.757172 256.106934,124.078522 
	C265.687500,114.326797 288.369690,117.593567 297.498718,129.321304 
	C299.910797,132.420029 301.694183,136.008148 303.930969,139.980637 
	C304.412109,141.053040 304.728546,141.516327 305.044983,141.979614 
	C306.450714,149.576782 306.743713,157.096191 303.386322,164.934448 
	C303.292236,165.501862 303.535492,165.843582 303.535492,165.843582 
	C303.535492,165.843582 303.362183,165.973770 303.258057,166.003845 
z"/>
<path fill="#657C8A" opacity="1.000000" stroke="none" 
	d="
M307.943329,167.361588 
	C307.219330,167.417801 306.437927,167.204208 305.434509,166.752167 
	C306.103668,166.706406 306.994781,166.899094 307.943329,167.361588 
z"/>
<path fill="#657C8A" opacity="1.000000" stroke="none" 
	d="
M305.264374,141.811920 
	C304.728546,141.516327 304.412109,141.053040 304.104004,140.293335 
	C304.569489,140.546021 305.026642,141.095139 305.264374,141.811920 
z"/>
<path fill="#ADA0AB" opacity="1.000000" stroke="none" 
	d="
M304.128601,270.349243 
	C304.538940,269.948395 305.119598,269.745850 305.854187,269.777222 
	C305.438385,270.189941 304.868652,270.368774 304.128601,270.349243 
z"/>
<path fill="#657C8A" opacity="1.000000" stroke="none" 
	d="
M348.456177,232.738647 
	C348.355774,232.394531 348.447540,231.878021 348.769775,231.213470 
	C348.882935,231.565704 348.765625,232.065994 348.456177,232.738647 
z"/>
<path fill="#657C8A" opacity="1.000000" stroke="none" 
	d="
M315.301636,267.928955 
	C315.127594,267.705322 315.255463,267.465118 315.732086,267.287872 
	C315.835297,267.508240 315.676239,267.695404 315.301636,267.928955 
z"/>
<path fill="#657C8A" opacity="1.000000" stroke="none" 
	d="
M318.275146,266.925293 
	C318.137665,266.714447 318.279114,266.497375 318.729340,266.329895 
	C318.817902,266.533844 318.656555,266.713684 318.275146,266.925293 
z"/>
<path fill="#657C8A" opacity="1.000000" stroke="none" 
	d="
M323.820007,172.535431 
	C323.623199,172.733261 323.388306,172.627701 323.150146,172.181351 
	C323.324188,172.067368 323.535889,172.197861 323.820007,172.535431 
z"/>
<path fill="#657C8A" opacity="1.000000" stroke="none" 
	d="
M310.821899,167.533844 
	C310.909210,167.629578 310.498474,167.755203 310.291748,167.699310 
	C310.252869,167.383270 310.469391,167.314835 310.821899,167.533844 
z"/>
<path fill="#657C8A" opacity="1.000000" stroke="none" 
	d="
M303.587891,165.745682 
	C303.535492,165.843582 303.292236,165.501862 303.334045,165.297470 
	C303.598572,165.221878 303.686707,165.406784 303.587891,165.745682 
z"/>
<path fill="#BFADB0" opacity="1.000000" stroke="none" 
	d="
M295.553162,165.996948 
	C296.454163,172.767654 302.614502,172.676071 306.676392,173.746857 
	C319.190002,177.045715 329.013641,183.683945 335.745178,194.615036 
	C348.544769,215.399719 343.757263,242.118713 321.822784,255.919632 
	C308.322876,264.413605 293.544739,267.822144 278.018280,260.963623 
	C270.666565,257.716187 264.452728,259.591553 258.912537,264.651337 
	C252.915649,270.128204 247.134216,275.840973 241.104843,281.761414 
	C238.644226,279.959229 236.337570,277.846466 234.288513,275.238647 
	C239.460190,269.566223 243.958847,263.895813 249.383774,259.324707 
	C257.941589,252.113770 258.614716,243.907059 254.638519,234.270859 
	C250.323288,223.813034 250.775314,213.060745 254.425797,202.649506 
	C256.202362,197.582703 257.837585,193.018036 254.998779,187.998016 
	C259.584351,183.189743 264.169891,178.381454 268.922607,173.271835 
	C273.726135,171.148590 278.258301,168.953079 283.031555,167.622040 
	C286.906372,166.541534 291.070496,166.498734 295.553162,165.996948 
z"/>
<path fill="#C4B1AF" opacity="1.000000" stroke="none" 
	d="
M254.608429,188.002899 
	C257.837585,193.018036 256.202362,197.582703 254.425797,202.649506 
	C250.775314,213.060745 250.323288,223.813034 254.638519,234.270859 
	C258.614716,243.907059 257.941589,252.113770 249.383774,259.324707 
	C243.958847,263.895813 239.460190,269.566223 234.235367,274.898560 
	C232.389938,274.215973 230.855240,273.378418 229.148438,271.927612 
	C228.974274,270.854675 228.972260,270.395020 229.238312,269.744781 
	C236.002060,263.153229 242.446579,256.699005 249.020660,250.379562 
	C251.375259,248.116165 252.722565,246.213715 250.898331,242.676147 
	C242.364548,226.127335 242.527954,209.547531 251.287201,193.034409 
	C252.013550,191.665070 251.705063,189.746811 251.877380,188.083588 
	C252.657623,188.058319 253.437851,188.033051 254.608429,188.002899 
z"/>
<path fill="#617F85" opacity="1.000000" stroke="none" 
	d="
M149.128128,248.314072 
	C149.346268,245.863907 148.076782,242.631073 152.674255,243.350250 
	C158.795624,249.651245 164.337982,255.814804 170.402588,261.412537 
	C171.711807,262.620972 175.124756,262.469513 177.190079,261.791382 
	C191.405731,257.123688 205.504684,256.000427 219.735794,261.715027 
	C221.969971,262.612183 224.570511,262.596985 227.156403,263.358704 
	C227.538895,265.753845 227.766632,267.793945 227.737915,269.923492 
	C227.311584,270.075684 227.141724,270.138367 226.971848,270.201080 
	C217.915894,267.804565 208.901749,263.736023 199.791595,263.508331 
	C191.607086,263.303772 183.196426,266.959961 175.141830,269.673859 
	C172.467194,270.575012 171.099579,270.744476 169.201477,268.786591 
	C162.622711,262.000641 155.927795,255.327286 149.128128,248.314072 
z"/>
<path fill="#A99DA9" opacity="1.000000" stroke="none" 
	d="
M227.031891,270.493439 
	C227.141724,270.138367 227.311584,270.075684 227.981537,269.953339 
	C228.481613,269.893707 228.970230,269.935333 228.970230,269.935333 
	C228.972260,270.395020 228.974274,270.854675 228.954971,271.658630 
	C228.319733,271.597198 227.705826,271.191498 227.031891,270.493439 
z"/>
<path fill="#6D818D" opacity="1.000000" stroke="none" 
	d="
M227.001648,263.003662 
	C224.570511,262.596985 221.969971,262.612183 219.735794,261.715027 
	C205.504684,256.000427 191.405731,257.123688 177.190079,261.791382 
	C175.124756,262.469513 171.711807,262.620972 170.402588,261.412537 
	C164.337982,255.814804 158.795624,249.651245 153.031891,243.345779 
	C156.785538,233.046768 160.235001,222.964691 158.919266,212.106201 
	C158.228363,206.404160 157.091614,200.688721 155.453247,195.188736 
	C153.957001,190.165878 154.489151,186.313492 158.596054,182.795517 
	C161.863846,179.996338 164.689865,176.681412 168.281250,173.296585 
	C171.438980,173.449692 174.262192,173.385315 176.577744,174.437759 
	C191.196640,181.082428 205.895203,181.686157 220.930191,175.964188 
	C223.008514,175.173233 225.613113,174.717239 227.713409,175.212234 
	C237.115280,177.428131 244.697144,191.050797 241.837570,200.119293 
	C237.776840,212.997025 237.239929,225.927002 242.471054,238.514343 
	C244.497116,243.389542 243.263779,246.938339 240.196609,250.194382 
	C235.997650,254.651932 231.418091,258.750977 227.001648,263.003662 
z"/>
<path fill="#647A89" opacity="1.000000" stroke="none" 
	d="
M227.156403,263.358704 
	C231.418091,258.750977 235.997650,254.651932 240.196609,250.194382 
	C243.263779,246.938339 244.497116,243.389542 242.471054,238.514343 
	C237.239929,225.927002 237.776840,212.997025 241.837570,200.119293 
	C244.697144,191.050797 237.115280,177.428131 227.713409,175.212234 
	C225.613113,174.717239 223.008514,175.173233 220.930191,175.964188 
	C205.895203,181.686157 191.196640,181.082428 176.577744,174.437759 
	C174.262192,173.385315 171.438980,173.449692 168.425568,172.996719 
	C167.980377,170.877747 167.960129,168.759750 167.883911,166.177704 
	C168.181030,164.958664 168.534134,164.203690 169.039032,163.163376 
	C182.020340,171.863876 196.129395,175.314056 211.518051,171.991394 
	C216.146393,170.992065 220.766525,169.213913 224.901291,166.913406 
	C227.987732,165.196136 229.452515,165.921021 231.572052,168.099716 
	C238.044769,174.753098 244.719055,181.210373 251.596161,187.913773 
	C251.705063,189.746811 252.013550,191.665070 251.287201,193.034409 
	C242.527954,209.547531 242.364548,226.127335 250.898331,242.676147 
	C252.722565,246.213715 251.375259,248.116165 249.020660,250.379562 
	C242.446579,256.699005 236.002060,263.153229 229.238312,269.744781 
	C228.970230,269.935333 228.481613,269.893707 228.237991,269.863861 
	C227.766632,267.793945 227.538895,265.753845 227.156403,263.358704 
z"/>
</svg>