<svg version="1.1" id="Layer_1" xmlns="http://www.w3.org/2000/svg" xmlns:xlink="http://www.w3.org/1999/xlink" x="0px" y="0px"
	 width="100%" viewBox="0 0 1022 440" enable-background="new 0 0 1022 440" xml:space="preserve">
<path fill="#FFFFFF" opacity="1.000000" stroke="none" 
	d="
M634.000000,441.000000 
	C422.666656,441.000000 211.833328,441.000000 1.000000,441.000000 
	C1.000000,294.333344 1.000000,147.666672 1.000000,1.000000 
	C341.666656,1.000000 682.333313,1.000000 1023.000000,1.000000 
	C1023.000000,147.666672 1023.000000,294.333344 1023.000000,441.000000 
	C893.500000,441.000000 764.000000,441.000000 634.000000,441.000000 
M63.499996,384.945099 
	C164.268066,384.945099 265.036133,384.945099 365.935181,384.945099 
	C365.935181,273.350616 365.935181,162.316376 365.935181,51.224564 
	C255.209900,51.224564 144.797318,51.224564 34.299774,51.224564 
	C34.299774,162.497818 34.299774,273.546387 34.299774,384.945099 
	C43.900249,384.945099 53.200123,384.945099 63.499996,384.945099 
M799.515076,265.260132 
	C800.978821,263.263824 802.685791,261.401367 803.868958,259.250732 
	C816.958679,235.459045 829.962708,211.620239 843.006836,187.803467 
	C843.884399,186.201157 844.898804,184.673767 845.849548,183.111511 
	C846.206726,183.266815 846.563965,183.422119 846.921143,183.577423 
	C846.921143,217.338699 846.921143,251.099976 846.921143,285.194824 
	C852.564575,285.194824 857.784851,285.194824 863.242798,285.194824 
	C863.242798,240.634933 863.242798,196.401108 863.242798,151.678345 
	C858.779602,151.678345 854.639526,151.906082 850.536194,151.615311 
	C846.302307,151.315292 843.829773,153.014496 841.818054,156.709122 
	C827.716980,182.606522 813.435730,208.405685 799.241516,234.252472 
	C797.541504,237.348007 796.018677,240.540771 794.254395,244.000946 
	C793.515442,243.073730 793.162903,242.738159 792.936646,242.332214 
	C776.959778,213.666290 761.027710,184.975220 744.944092,156.369293 
	C743.915405,154.539658 741.839417,152.288971 740.045288,152.090637 
	C734.843445,151.515549 729.536865,151.886993 724.279785,151.886993 
	C724.279785,196.749802 724.279785,240.982239 724.279785,285.673706 
	C728.277405,285.673706 731.934326,285.409943 735.536133,285.742737 
	C739.716980,286.129120 740.877502,284.629913 740.850281,280.465057 
	C740.647583,249.467178 740.683777,218.467758 740.657410,187.468811 
	C740.656250,186.101471 740.775208,184.734039 740.902710,181.967468 
	C742.701538,185.008041 743.808044,186.792068 744.832092,188.622223 
	C758.173767,212.466019 771.490417,236.323837 784.845398,260.160126 
	C788.469543,266.628601 791.477173,267.756653 799.515076,265.260132 
M600.767273,197.494690 
	C600.767273,182.398239 600.767273,167.301788 600.767273,152.202789 
	C594.094788,152.202789 588.179810,152.202789 582.301697,152.202789 
	C582.301697,196.887283 582.301697,241.239548 582.301697,285.441254 
	C588.653137,285.441254 594.561035,285.441254 600.998230,285.441254 
	C600.998230,265.197968 600.998230,245.315048 600.998230,225.565063 
	C624.923706,225.565063 648.300415,225.565063 672.099915,225.565063 
	C672.099915,245.753525 672.099915,265.515961 672.099915,285.276062 
	C678.561768,285.276062 684.586060,285.276062 690.626160,285.276062 
	C690.749573,284.173248 690.887756,283.516663 690.887329,282.860107 
	C690.862305,240.546112 690.825989,198.232101 690.789856,155.918106 
	C690.789429,155.418411 690.971863,154.780075 690.733398,154.445496 
	C690.070312,153.514984 689.258728,152.003235 688.455200,151.970764 
	C683.035645,151.751648 677.603027,151.856506 671.666382,151.856506 
	C671.666382,171.939529 671.666382,191.334885 671.666382,210.831680 
	C647.759644,210.831680 624.386292,210.831680 600.767822,210.831680 
	C600.767822,206.463776 600.767822,202.478409 600.767273,197.494690 
M946.979553,151.511932 
	C937.228943,149.237442 927.482727,149.133392 917.892639,152.151062 
	C887.527466,161.705948 885.370544,196.484543 900.567749,211.102982 
	C907.945496,218.199768 917.408875,220.904404 926.680054,224.134277 
	C932.800171,226.266403 939.100525,228.127625 944.838562,231.054428 
	C954.302551,235.881836 957.291748,244.031021 954.266968,254.184753 
	C950.883362,265.543121 940.830505,271.613464 926.912842,271.151184 
	C916.516907,270.805878 908.103088,266.147247 900.228271,259.969910 
	C896.825684,257.300812 893.689636,257.102997 890.800293,260.929504 
	C885.434814,268.035339 885.217346,269.394104 889.865112,273.268738 
	C905.328186,286.159454 923.125244,289.704163 942.361145,285.140930 
	C956.425781,281.804535 966.159912,272.924957 970.872681,258.996002 
	C977.626526,239.034256 970.397705,221.805588 951.850159,213.936493 
	C946.797424,211.792801 941.527527,210.165787 936.435303,208.108612 
	C929.972229,205.497665 923.133179,203.427048 917.271179,199.804703 
	C906.919006,193.407761 906.194031,179.552444 915.438293,171.788681 
	C918.141663,169.518265 921.657166,167.791290 925.083496,166.882629 
	C936.450684,163.868118 946.703125,166.877975 956.200623,173.465454 
	C961.572021,177.191071 963.721863,176.478180 966.726501,170.677719 
	C967.338745,169.495758 967.818359,168.219940 968.583313,167.147369 
	C970.351135,164.668930 969.749573,162.695480 967.266663,161.412796 
	C960.821045,158.082870 954.291687,154.914841 946.979553,151.511932 
M432.184723,286.500000 
	C432.184784,302.990265 432.182556,319.480499 432.187500,335.970764 
	C432.188171,338.251617 431.721405,341.013031 436.009308,339.542450 
	C436.009308,337.773987 436.009277,335.968567 436.009277,334.163177 
	C436.009277,271.033813 436.009308,207.904480 436.009277,144.775131 
	C436.009247,129.450851 436.046478,114.126305 435.932373,98.802887 
	C435.923920,97.670296 434.825897,96.545815 434.234436,95.417557 
	C433.551575,96.481865 432.627380,97.469391 432.257080,98.633156 
	C431.920197,99.692078 432.184723,100.942444 432.184723,102.108421 
	C432.184692,163.238953 432.184784,224.369476 432.184723,286.500000 
z"/>
<path fill="#1E2538" opacity="1.000000" stroke="none" 
	d="
M62.999992,384.945099 
	C53.200123,384.945099 43.900249,384.945099 34.299774,384.945099 
	C34.299774,273.546387 34.299774,162.497818 34.299774,51.224564 
	C144.797318,51.224564 255.209900,51.224564 365.935181,51.224564 
	C365.935181,162.316376 365.935181,273.350616 365.935181,384.945099 
	C265.036133,384.945099 164.268066,384.945099 62.999992,384.945099 
M249.753204,122.386909 
	C248.585724,115.738373 248.171814,108.846626 246.118347,102.484024 
	C237.879135,76.954834 208.230957,62.131119 182.630920,69.936752 
	C161.955826,76.240723 144.846375,94.591072 143.842194,119.874168 
	C142.407394,119.489014 140.920731,119.236366 139.545761,118.698288 
	C125.009323,113.009689 105.891792,121.285019 99.452454,135.698242 
	C95.405807,144.755890 95.573364,153.631317 96.988884,162.905594 
	C74.243057,163.469482 56.719891,175.835922 48.440781,197.166962 
	C41.023640,216.277130 46.107780,239.240402 61.256516,253.592148 
	C71.279541,263.087891 83.414955,267.951660 97.076790,269.483887 
	C96.942055,270.130585 96.966988,270.871490 96.649239,271.410217 
	C88.765007,284.778259 89.514023,297.633362 98.516342,310.260040 
	C104.770355,319.032043 118.702682,324.827759 129.240814,322.355896 
	C134.187515,321.195526 139.012100,319.514557 143.942215,318.801453 
	C143.948227,319.535004 143.954239,320.268524 143.474991,321.394775 
	C143.904510,322.299713 144.334030,323.204681 144.866028,324.927216 
	C147.699692,331.903748 149.304245,339.767242 153.585052,345.699463 
	C169.946167,368.372253 195.894348,374.578888 220.929565,361.823364 
	C237.644821,353.306854 246.630737,338.936981 248.826096,320.006714 
	C250.698486,320.592102 252.541534,321.307709 254.448990,321.737549 
	C259.415588,322.856689 264.556244,325.194244 269.369873,324.671906 
	C296.601746,321.717102 309.334625,293.544556 294.816986,270.898804 
	C296.782593,270.600586 298.745178,270.280792 300.714264,270.007507 
	C315.276917,267.986542 327.034363,260.994629 335.757904,249.314713 
	C359.039825,218.142731 340.702728,174.299286 304.366516,166.929123 
	C303.927643,166.910187 303.488739,166.891266 302.550507,166.447998 
	C301.690735,166.305389 300.830963,166.162796 299.994110,165.188126 
	C300.328400,163.569397 300.581696,161.928940 301.009064,160.335159 
	C307.239716,137.101227 287.583191,114.838493 263.908905,118.996559 
	C259.076447,119.845322 254.443008,121.827133 249.753204,122.386909 
z"/>
<path fill="#473E3E" opacity="1.000000" stroke="none" 
	d="
M799.194336,265.453857 
	C791.477173,267.756653 788.469543,266.628601 784.845398,260.160126 
	C771.490417,236.323837 758.173767,212.466019 744.832092,188.622223 
	C743.808044,186.792068 742.701538,185.008041 740.902710,181.967468 
	C740.775208,184.734039 740.656250,186.101471 740.657410,187.468811 
	C740.683777,218.467758 740.647583,249.467178 740.850281,280.465057 
	C740.877502,284.629913 739.716980,286.129120 735.536133,285.742737 
	C731.934326,285.409943 728.277405,285.673706 724.279785,285.673706 
	C724.279785,240.982239 724.279785,196.749802 724.279785,151.886993 
	C729.536865,151.886993 734.843445,151.515549 740.045288,152.090637 
	C741.839417,152.288971 743.915405,154.539658 744.944092,156.369293 
	C761.027710,184.975220 776.959778,213.666290 792.936646,242.332214 
	C793.162903,242.738159 793.515442,243.073730 794.254395,244.000946 
	C796.018677,240.540771 797.541504,237.348007 799.241516,234.252472 
	C813.435730,208.405685 827.716980,182.606522 841.818054,156.709122 
	C843.829773,153.014496 846.302307,151.315292 850.536194,151.615311 
	C854.639526,151.906082 858.779602,151.678345 863.242798,151.678345 
	C863.242798,196.401108 863.242798,240.634933 863.242798,285.194824 
	C857.784851,285.194824 852.564575,285.194824 846.921143,285.194824 
	C846.921143,251.099976 846.921143,217.338699 846.921143,183.577423 
	C846.563965,183.422119 846.206726,183.266815 845.849548,183.111511 
	C844.898804,184.673767 843.884399,186.201157 843.006836,187.803467 
	C829.962708,211.620239 816.958679,235.459045 803.868958,259.250732 
	C802.685791,261.401367 800.978821,263.263824 799.194336,265.453857 
z"/>
<path fill="#473E3E" opacity="1.000000" stroke="none" 
	d="
M600.767578,197.993866 
	C600.767822,202.478409 600.767822,206.463776 600.767822,210.831680 
	C624.386292,210.831680 647.759644,210.831680 671.666382,210.831680 
	C671.666382,191.334885 671.666382,171.939529 671.666382,151.856506 
	C677.603027,151.856506 683.035645,151.751648 688.455200,151.970764 
	C689.258728,152.003235 690.070312,153.514984 690.733398,154.445496 
	C690.971863,154.780075 690.789429,155.418411 690.789856,155.918106 
	C690.825989,198.232101 690.862305,240.546112 690.887329,282.860107 
	C690.887756,283.516663 690.749573,284.173248 690.626160,285.276062 
	C684.586060,285.276062 678.561768,285.276062 672.099915,285.276062 
	C672.099915,265.515961 672.099915,245.753525 672.099915,225.565063 
	C648.300415,225.565063 624.923706,225.565063 600.998230,225.565063 
	C600.998230,245.315048 600.998230,265.197968 600.998230,285.441254 
	C594.561035,285.441254 588.653137,285.441254 582.301697,285.441254 
	C582.301697,241.239548 582.301697,196.887283 582.301697,152.202789 
	C588.179810,152.202789 594.094788,152.202789 600.767273,152.202789 
	C600.767273,167.301788 600.767273,182.398239 600.767578,197.993866 
z"/>
<path fill="#473F3F" opacity="1.000000" stroke="none" 
	d="
M947.387695,151.597076 
	C954.291687,154.914841 960.821045,158.082870 967.266663,161.412796 
	C969.749573,162.695480 970.351135,164.668930 968.583313,167.147369 
	C967.818359,168.219940 967.338745,169.495758 966.726501,170.677719 
	C963.721863,176.478180 961.572021,177.191071 956.200623,173.465454 
	C946.703125,166.877975 936.450684,163.868118 925.083496,166.882629 
	C921.657166,167.791290 918.141663,169.518265 915.438293,171.788681 
	C906.194031,179.552444 906.919006,193.407761 917.271179,199.804703 
	C923.133179,203.427048 929.972229,205.497665 936.435303,208.108612 
	C941.527527,210.165787 946.797424,211.792801 951.850159,213.936493 
	C970.397705,221.805588 977.626526,239.034256 970.872681,258.996002 
	C966.159912,272.924957 956.425781,281.804535 942.361145,285.140930 
	C923.125244,289.704163 905.328186,286.159454 889.865112,273.268738 
	C885.217346,269.394104 885.434814,268.035339 890.800293,260.929504 
	C893.689636,257.102997 896.825684,257.300812 900.228271,259.969910 
	C908.103088,266.147247 916.516907,270.805878 926.912842,271.151184 
	C940.830505,271.613464 950.883362,265.543121 954.266968,254.184753 
	C957.291748,244.031021 954.302551,235.881836 944.838562,231.054428 
	C939.100525,228.127625 932.800171,226.266403 926.680054,224.134277 
	C917.408875,220.904404 907.945496,218.199768 900.567749,211.102982 
	C885.370544,196.484543 887.527466,161.705948 917.892639,152.151062 
	C927.482727,149.133392 937.228943,149.237442 947.387695,151.597076 
z"/>
<path fill="#545560" opacity="1.000000" stroke="none" 
	d="
M432.184753,286.000000 
	C432.184784,224.369476 432.184692,163.238953 432.184723,102.108421 
	C432.184723,100.942444 431.920197,99.692078 432.257080,98.633156 
	C432.627380,97.469391 433.551575,96.481865 434.234436,95.417557 
	C434.825897,96.545815 435.923920,97.670296 435.932373,98.802887 
	C436.046478,114.126305 436.009247,129.450851 436.009277,144.775131 
	C436.009308,207.904480 436.009277,271.033813 436.009277,334.163177 
	C436.009277,335.968567 436.009308,337.773987 436.009308,339.542450 
	C431.721405,341.013031 432.188171,338.251617 432.187500,335.970764 
	C432.182556,319.480499 432.184784,302.990265 432.184753,286.000000 
z"/>
<path fill="#5E477D" opacity="1.000000" stroke="none" 
	d="
M143.960251,321.002075 
	C143.954239,320.268524 143.948227,319.535004 143.954285,317.972473 
	C143.755417,308.588745 144.966721,300.267517 149.215759,292.752167 
	C151.209763,289.225342 150.825912,287.047821 147.910904,284.222107 
	C140.077881,276.628998 132.609161,268.660095 125.160217,260.554016 
	C130.582733,255.178970 135.840851,250.090317 141.404572,245.124878 
	C142.994614,246.278717 144.398361,247.192200 145.543884,248.359146 
	C152.290070,255.231522 158.888519,262.252747 165.780396,268.974030 
	C166.771408,269.940521 169.469177,270.321869 170.717621,269.683777 
	C187.775665,260.965027 204.673477,260.669739 221.591614,269.982697 
	C222.536713,270.502960 223.753754,270.529144 225.000839,271.102173 
	C230.443405,276.620178 235.729385,281.821320 241.048676,287.380493 
	C242.034485,289.640106 243.051987,291.512268 243.928253,293.448334 
	C247.768661,301.933441 249.440842,310.765228 248.046799,320.065674 
	C246.630737,338.936981 237.644821,353.306854 220.929565,361.823364 
	C195.894348,374.578888 169.946167,368.372253 153.585052,345.699463 
	C149.304245,339.767242 147.699692,331.903748 144.883789,324.172363 
	C144.587784,322.612335 144.274017,321.807220 143.960251,321.002075 
z"/>
<path fill="#597481" opacity="1.000000" stroke="none" 
	d="
M141.098969,245.001663 
	C135.840851,250.090317 130.582733,255.178970 124.789230,260.608826 
	C122.509178,261.793121 120.845314,262.949402 119.005577,263.424042 
	C111.768219,265.291229 104.475525,266.943939 97.203369,268.676270 
	C83.414955,267.951660 71.279541,263.087891 61.256516,253.592148 
	C46.107780,239.240402 41.023640,216.277130 48.440781,197.166962 
	C56.719891,175.835922 74.243057,163.469482 97.887848,162.927887 
	C108.474861,162.710709 117.027916,166.426575 125.959007,171.089737 
	C134.023071,162.371292 142.082977,153.657333 150.473755,145.014175 
	C155.482605,150.188644 160.184555,155.270798 164.809448,160.422119 
	C165.415771,161.097443 165.627213,162.127274 165.858994,163.283630 
	C158.906754,170.412903 152.177292,177.312912 145.294312,184.056229 
	C142.928162,186.374329 142.496704,187.958344 143.889099,191.551346 
	C146.720047,198.856522 148.933716,206.671783 149.693298,214.443817 
	C150.769363,225.453735 146.530624,235.527084 141.098969,245.001663 
z"/>
<path fill="#6B638E" opacity="1.000000" stroke="none" 
	d="
M241.015350,287.022461 
	C235.729385,281.821320 230.443405,276.620178 225.177490,270.828125 
	C232.141525,263.283844 239.010605,256.253021 246.073822,249.423004 
	C248.277878,247.291702 248.993729,245.669540 247.367538,242.653519 
	C238.471909,226.155106 239.003876,209.573502 247.411224,192.999146 
	C248.145218,191.552139 247.970062,189.643951 248.571899,187.952057 
	C254.320374,182.942795 259.714142,177.931427 265.470306,172.935822 
	C276.481842,167.044098 287.936462,165.103577 299.971191,166.020203 
	C300.830963,166.162796 301.690735,166.305389 302.909790,166.909058 
	C303.849823,167.270004 304.430603,167.169922 305.011383,167.069824 
	C340.702728,174.299286 359.039825,218.142731 335.757904,249.314713 
	C327.034363,260.994629 315.276917,267.986542 300.714264,270.007507 
	C298.745178,270.280792 296.782593,270.600586 293.980988,270.934875 
	C285.218231,268.877380 277.183380,267.108734 269.419769,264.524902 
	C266.455414,263.538300 264.827972,263.479156 262.610046,265.745636 
	C255.543533,272.966797 248.232147,279.948364 241.015350,287.022461 
z"/>
<path fill="#887495" opacity="1.000000" stroke="none" 
	d="
M265.107941,172.920074 
	C259.714142,177.931427 254.320374,182.942795 248.273041,187.779449 
	C241.453445,181.551514 235.079742,175.691055 229.207611,169.364990 
	C226.199997,166.124863 223.708740,165.722382 219.797089,167.644424 
	C201.007431,176.877029 183.099152,174.358109 166.021545,162.992905 
	C165.627213,162.127274 165.415771,161.097443 164.809448,160.422119 
	C160.184555,155.270798 155.482605,150.188644 150.278412,144.701767 
	C148.014282,136.148071 146.276382,127.977577 144.538467,119.807091 
	C144.846375,94.591072 161.955826,76.240723 182.630920,69.936752 
	C208.230957,62.131119 237.879135,76.954834 246.118347,102.484024 
	C248.171814,108.846626 248.585724,115.738373 249.599274,123.174026 
	C248.767990,127.699829 248.318527,131.498337 247.356842,135.162384 
	C246.094757,139.971008 242.386948,145.232239 243.491501,149.270172 
	C244.677200,153.604721 250.302444,156.671143 253.843048,160.429749 
	C257.686493,164.509842 261.360199,168.749817 265.107941,172.920074 
z"/>
<path fill="#3C334E" opacity="1.000000" stroke="none" 
	d="
M97.140076,269.080078 
	C104.475525,266.943939 111.768219,265.291229 119.005577,263.424042 
	C120.845314,262.949402 122.509178,261.793121 124.624825,260.895203 
	C132.609161,268.660095 140.077881,276.628998 147.910904,284.222107 
	C150.825912,287.047821 151.209763,289.225342 149.215759,292.752167 
	C144.966721,300.267517 143.755417,308.588745 143.929199,317.606506 
	C139.012100,319.514557 134.187515,321.195526 129.240814,322.355896 
	C118.702682,324.827759 104.770355,319.032043 98.516342,310.260040 
	C89.514023,297.633362 88.765007,284.778259 96.649239,271.410217 
	C96.966988,270.871490 96.942055,270.130585 97.140076,269.080078 
z"/>
<path fill="#4C4A60" opacity="1.000000" stroke="none" 
	d="
M241.048676,287.380493 
	C248.232147,279.948364 255.543533,272.966797 262.610046,265.745636 
	C264.827972,263.479156 266.455414,263.538300 269.419769,264.524902 
	C277.183380,267.108734 285.218231,268.877380 293.576538,270.986511 
	C309.334625,293.544556 296.601746,321.717102 269.369873,324.671906 
	C264.556244,325.194244 259.415588,322.856689 254.448990,321.737549 
	C252.541534,321.307709 250.698486,320.592102 248.436447,320.036194 
	C249.440842,310.765228 247.768661,301.933441 243.928253,293.448334 
	C243.051987,291.512268 242.034485,289.640106 241.048676,287.380493 
z"/>
<path fill="#605768" opacity="1.000000" stroke="none" 
	d="
M265.470306,172.935822 
	C261.360199,168.749817 257.686493,164.509842 253.843048,160.429749 
	C250.302444,156.671143 244.677200,153.604721 243.491501,149.270172 
	C242.386948,145.232239 246.094757,139.971008 247.356842,135.162384 
	C248.318527,131.498337 248.767990,127.699829 249.581573,123.623901 
	C254.443008,121.827133 259.076447,119.845322 263.908905,118.996559 
	C287.583191,114.838493 307.239716,137.101227 301.009064,160.335159 
	C300.581696,161.928940 300.328400,163.569397 299.982666,165.604156 
	C287.936462,165.103577 276.481842,167.044098 265.470306,172.935822 
z"/>
<path fill="#3B4E58" opacity="1.000000" stroke="none" 
	d="
M144.190338,119.840630 
	C146.276382,127.977577 148.014282,136.148071 149.947540,144.630966 
	C142.082977,153.657333 134.023071,162.371292 125.959007,171.089737 
	C117.027916,166.426575 108.474861,162.710709 98.330437,162.895416 
	C95.573364,153.631317 95.405807,144.755890 99.452454,135.698242 
	C105.891792,121.285019 125.009323,113.009689 139.545761,118.698288 
	C140.920731,119.236366 142.407394,119.489014 144.190338,119.840630 
z"/>
<path fill="#3C334E" opacity="1.000000" stroke="none" 
	d="
M143.717621,321.198425 
	C144.274017,321.807220 144.587784,322.612335 144.832565,323.763550 
	C144.334030,323.204681 143.904510,322.299713 143.717621,321.198425 
z"/>
<path fill="#605768" opacity="1.000000" stroke="none" 
	d="
M304.688965,166.999481 
	C304.430603,167.169922 303.849823,167.270004 303.159454,167.121216 
	C303.488739,166.891266 303.927643,166.910187 304.688965,166.999481 
z"/>
<path fill="#1E2539" opacity="1.000000" stroke="none" 
	d="
M165.858994,163.283630 
	C183.099152,174.358109 201.007431,176.877029 219.797089,167.644424 
	C223.708740,165.722382 226.199997,166.124863 229.207611,169.364990 
	C235.079742,175.691055 241.453445,181.551514 247.918335,187.777374 
	C247.970062,189.643951 248.145218,191.552139 247.411224,192.999146 
	C239.003876,209.573502 238.471909,226.155106 247.367538,242.653519 
	C248.993729,245.669540 248.277878,247.291702 246.073822,249.423004 
	C239.010605,256.253021 232.141525,263.283844 225.020874,270.511230 
	C223.753754,270.529144 222.536713,270.502960 221.591614,269.982697 
	C204.673477,260.669739 187.775665,260.965027 170.717621,269.683777 
	C169.469177,270.321869 166.771408,269.940521 165.780396,268.974030 
	C158.888519,262.252747 152.290070,255.231522 145.543884,248.359146 
	C144.398361,247.192200 142.994614,246.278717 141.404572,245.124878 
	C146.530624,235.527084 150.769363,225.453735 149.693298,214.443817 
	C148.933716,206.671783 146.720047,198.856522 143.889099,191.551346 
	C142.496704,187.958344 142.928162,186.374329 145.294312,184.056229 
	C152.177292,177.312912 158.906754,170.412903 165.858994,163.283630 
z"/>
</svg>